<svg xmlns="http://www.w3.org/2000/svg" xmlns:xlink="http://www.w3.org/1999/xlink" version="1.1" data-diagram-type="DESCRIPTION" style="width:1947px;height:1024px;background:#FCFCFD;" width="1947px" height="1024px" viewBox="0 0 1947 1024" zoomAndPan="magnify" preserveAspectRatio="none" contentStyleType="text/css"><?plantuml 1.2026.7?><defs/><g font-family="sans-serif" lengthAdjust="spacing"><rect x="0" y="0" width="1947" height="1024" fill="#FCFCFD" style="stroke:none;"/><g class="title" data-source-line="2"><text x="843.193" y="23.132" fill="#1F2937" font-size="14" textLength="253.613" font-weight="700" font-family="Arial">GatoPago — C4 nivel 2: contenedores</text></g><!--cluster Sistema GatoPago--><g class="cluster" data-qualified-name="Sistema GatoPago" id="ent0004" data-source-line="10"><path d="M180,218.365 L295.703,218.365 A10.5,10.5 0 0 1 302.703,225.365 L309.703,240.463 L1924,240.463 A7,7 0 0 1 1931,247.463 L1931,632.365 A7,7 0 0 1 1924,639.365 L180,639.365 A7,7 0 0 1 173,632.365 L173,225.365 A7,7 0 0 1 180,218.365" style="stroke:#829AB1;stroke-width:1.5;" fill="#F8FAFC"/><line x1="173" y1="240.463" x2="309.703" y2="240.463" style="stroke:#829AB1;stroke-width:1.5;"/><text x="177" y="233.497" fill="#1F2937" font-size="14" textLength="123.703" font-weight="700" font-family="Arial">Sistema GatoPago</text></g><!--entity person--><g class="entity" data-qualified-name="person" id="ent0001" data-source-line="6"><ellipse cx="32.072" cy="404.865" rx="8" ry="8" fill="#F1F1F1" style="stroke:#334E68;stroke-width:0.5;"/><path d="M32.072,412.865 L32.072,439.865 M19.072,420.865 L45.072,420.865 M32.072,439.865 L19.072,454.865 M32.072,439.865 L45.072,454.865" style="stroke:#334E68;stroke-width:0.5;" fill="none"/><text x="6" y="469.497" fill="#243B53" font-size="14" textLength="52.145" font-family="Arial">Persona</text></g><!--entity business--><g class="entity" data-qualified-name="business" id="ent0002" data-source-line="7"><ellipse cx="32.183" cy="508.865" rx="8" ry="8" fill="#F1F1F1" style="stroke:#334E68;stroke-width:0.5;"/><path d="M32.183,516.865 L32.183,543.865 M19.183,524.865 L45.183,524.865 M32.183,543.865 L19.183,558.865 M32.183,543.865 L45.183,558.865" style="stroke:#334E68;stroke-width:0.5;" fill="none"/><text x="6.5" y="573.497" fill="#243B53" font-size="14" textLength="51.365" font-family="Arial">Negocio</text></g><!--entity b2b--><g class="entity" data-qualified-name="b2b" id="ent0003" data-source-line="8"><ellipse cx="779.462" cy="46.865" rx="8" ry="8" fill="#F1F1F1" style="stroke:#334E68;stroke-width:0.5;"/><path d="M779.462,54.865 L779.462,81.865 M766.462,62.865 L792.462,62.865 M779.462,81.865 L766.462,96.865 M779.462,81.865 L792.462,96.865" style="stroke:#334E68;stroke-width:0.5;" fill="none"/><text x="739" y="111.497" fill="#243B53" font-size="14" textLength="80.924" font-family="Arial">Sistema B2B</text></g><!--entity firebase--><g class="entity" data-qualified-name="firebase" id="ent0014" data-source-line="24"><path d="M1694.111,791.214 C1697.837,785.702 1701.266,786.235 1704.965,791.241 C1708.36,785.094 1713.269,784.993 1716.771,791.138 C1719.346,785.586 1724.82,785.022 1727.776,790.767 C1731.168,785.205 1736.944,784.908 1739.621,791.465 C1742.599,785.566 1748.248,786.223 1751.626,791.016 C1755.319,785.35 1758.915,785.9 1763.192,790.347 C1767.264,785.487 1771.25,784.408 1774.734,790.942 C1777.728,785.597 1782.076,784.775 1785.695,790.314 C1789.825,784.851 1793.686,785.209 1797.347,790.809 C1801.943,785.606 1807.173,784.012 1810.878,791.741 C1813.738,786.214 1819.158,785.912 1822.556,791.158 C1825.915,787.167 1829.887,787.73 1832.473,792.078 C1836.963,794.767 1837.544,798.628 1833.679,802.302 C1839.48,805.84 1840.305,810.938 1833.752,814.55 C1838.903,817.229 1840.594,823.156 1834.609,826.625 C1838.787,830.614 1837.986,834.525 1833.1,837.223 C1830.132,842.903 1825.67,843.198 1821.419,838.694 C1818.83,845.559 1814.957,845.18 1810.232,840.825 C1805.917,846.1 1800.746,847.144 1797.373,839.86 C1795.431,845.356 1789.836,847.043 1785.643,842.487 C1782.376,848.087 1779.019,849.111 1774.445,843.83 C1771.269,849.529 1767.646,850.409 1763.519,844.744 C1760.44,849.325 1755.248,848.616 1752.719,844.093 C1748.032,849.016 1743.12,847.362 1740.747,841.52 C1736.269,847.87 1730.966,846.396 1727.6,840.341 C1724.208,845.589 1720.558,844.602 1717.288,840.21 C1713.179,845.023 1708.843,844.923 1705.106,839.756 C1699.651,844.892 1695.768,843.356 1693.354,836.72 C1688.739,834.059 1687.978,830.718 1691.753,826.714 C1685.525,824.699 1682.745,819.264 1688.6,814.204 C1684.319,810.477 1684.073,805.155 1690.058,802.733 C1686.217,797.242 1686.735,792.758 1694.111,791.214" style="stroke:#181818;stroke-width:0.5;" fill="#EDE9FE"/><text x="1699.5" y="810.497" fill="#1F2937" font-size="14" textLength="87.158" font-family="Arial">Firebase Auth</text><text x="1699.5" y="826.595" fill="#1F2937" font-size="14" textLength="125.679" font-family="Arial">Google + Email Link</text></g><!--entity email--><g class="entity" data-qualified-name="email" id="ent0015" data-source-line="25"><path d="M1249.568,664.505 C1253.586,659.064 1258.322,659.461 1261.975,664.921 C1265.077,658.988 1270.713,658.356 1274.237,664.492 C1276.897,657.34 1282.511,657.673 1286.85,662.762 C1289.452,657.447 1294.641,656.693 1297.725,662.284 C1301.377,656.264 1306.509,656.041 1310.162,662.283 C1315.029,657.301 1319.666,656.926 1322.989,663.935 C1326.708,658.71 1331.368,658.686 1334.744,664.306 C1338.047,658.037 1342.782,656.945 1347.292,663.086 C1351.728,658.069 1355.782,658.828 1358.236,665.02 C1360.526,658.821 1366.293,658.922 1370.032,663.423 C1377.816,665.109 1379.963,670.021 1375.266,676.646 C1381.039,678.318 1383.586,682.646 1378.92,687.752 C1383.239,693.482 1380.381,697.477 1374.178,698.613 C1378.455,703.394 1377.967,708.649 1371.054,710.486 C1368.272,716.749 1363.181,716.903 1359.517,711.345 C1357.003,717.416 1350.815,720.258 1346.023,713.799 C1344.312,719.539 1338.664,720.89 1334.47,716.683 C1330.406,721.585 1327.011,721.409 1323.194,716.402 C1320.357,723.528 1315.409,724.415 1310.095,718.987 C1305.968,722.848 1300.714,722.539 1298.884,716.409 C1294.65,722.822 1290.31,721.573 1286.104,716.378 C1281.675,721.744 1276.149,720.407 1273.514,714.393 C1269.025,719.76 1264.104,718.672 1261.863,712.185 C1258.246,717.465 1253.806,717.28 1250.727,711.636 C1243.785,711.35 1241.199,705.813 1245.103,700.196 C1237.994,698.234 1236.782,693.857 1240.781,687.968 C1237.04,682.146 1238.092,676.76 1245.867,675.719 C1241.118,670.68 1242.519,665.651 1249.568,664.505" style="stroke:#181818;stroke-width:0.5;" fill="#E5E7EB"/><text x="1256" y="683.497" fill="#1F2937" font-size="14" textLength="79.365" font-family="Arial">Email legacy</text><text x="1256" y="699.595" fill="#1F2937" font-size="14" textLength="106.613" font-family="Arial">Business diferido</text></g><!--entity providers--><g class="entity" data-qualified-name="providers" id="ent0016" data-source-line="26"><path d="M1716.962,696.485 C1720.704,690.005 1724.624,690.592 1728.906,695.939 C1732.152,690.969 1736.666,690.388 1740.253,695.557 C1743.828,690.313 1747.706,688.489 1752.31,694.448 C1756.298,688.517 1760.002,688.031 1764.668,693.727 C1769.015,688.761 1773.326,688.462 1776.361,695.055 C1780.52,690.364 1784.022,690.187 1787.974,695.3 C1791.489,689.785 1795.756,689.134 1799.278,695.293 C1803.598,690.229 1809.594,689.705 1812.41,696.904 C1821.245,698.807 1822.044,706.079 1815.908,711.555 C1822.24,717.736 1820.321,724.687 1812.094,727.353 C1809.154,733.887 1804.118,734.047 1799.976,728.567 C1797.353,733.66 1792.4,734.663 1788.438,730.18 C1785.161,737.017 1780.824,739.128 1774.671,733.31 C1771.573,739.716 1768.059,739.219 1763.692,734.569 C1759.105,739.654 1755.217,740.305 1751.476,733.685 C1746.667,737.54 1743.244,737.111 1740.226,731.545 C1735.216,738.053 1730.322,737.315 1727.314,729.713 C1722.418,734.887 1717.578,731.815 1715.988,726.231 C1707.509,723.128 1706.287,717.734 1712.189,711.035 C1706.825,704.771 1708.03,698.06 1716.962,696.485" style="stroke:#181818;stroke-width:0.5;" fill="#EDE9FE"/><text x="1722" y="715.497" fill="#1F2937" font-size="14" textLength="81.293" font-family="Arial">RPC + Circle</text></g><!--entity chains--><g class="entity" data-qualified-name="chains" id="ent0017" data-source-line="27"><polygon points="1636,150.365,1646,140.365,1889.199,140.365,1889.199,192.562,1879.199,202.562,1636,202.562,1636,150.365" fill="#EDE9FE" style="stroke:#181818;stroke-width:0.5;stroke-linejoin:miter;stroke-miterlimit:10;"/><line x1="1879.199" y1="150.365" x2="1889.199" y2="140.365" style="stroke:#181818;stroke-width:0.5;"/><line x1="1636" y1="150.365" x2="1879.199" y2="150.365" style="stroke:#181818;stroke-width:0.5;"/><line x1="1879.199" y1="150.365" x2="1879.199" y2="202.562" style="stroke:#181818;stroke-width:0.5;"/><text x="1651" y="173.497" fill="#1F2937" font-size="14" textLength="213.199" font-family="Arial">Smart accounts, PaymentRouters,</text><text x="1651" y="189.595" fill="#1F2937" font-size="14" textLength="146.248" font-family="Arial">USDC y CCTP en EVM</text></g><g class="entity" data-qualified-name="GMN40" id="ent0041" data-source-line="56"><path d="M625,139.365 L625,165.305 L643.754,533.829 L625,173.305 L625,195.16 A7,7 0 0 0 632,202.16 L927.311,202.16 A7,7 0 0 0 934.311,195.16 L934.311,142.365 L924.311,132.365 L632,132.365 A7,7 0 0 0 625,139.365" style="stroke:#B7791F;stroke-width:0.5;" fill="#FFFBEB"/><path d="M924.311,132.365 L924.311,138.865 A3.5,3.5 0 0 0 927.811,142.365 L934.311,142.365 L924.311,132.365" style="stroke:#B7791F;stroke-width:0.5;" fill="#FFFBEB"/><text x="631" y="149.559" fill="#1F2937" font-size="13" textLength="288.311" font-family="Arial">El modo legacy/frozen/payments controla el corte.</text><text x="631" y="164.507" fill="#1F2937" font-size="13" textLength="264.469" font-family="Arial">Sólo delega /links, /checkout, /v1 y /merchant.</text><text x="631" y="179.456" fill="#1F2937" font-size="13" textLength="258.724" font-family="Arial">/pay y /crosschain siguen en App, que nunca</text><text x="631" y="194.405" fill="#1F2937" font-size="13" textLength="198.701" font-family="Arial">recibe el binding PAYMENTS_DB.</text></g><g class="entity" data-qualified-name="GMN43" id="ent0044" data-source-line="63"><path d="M1172,129.365 L1172,128.444 L1195.274,405.358 L1172,136.444 L1172,155.262 A7,7 0 0 0 1179,162.262 L1440.363,162.262 A7,7 0 0 0 1447.363,155.262 L1447.363,132.365 L1437.363,122.365 L1179,122.365 A7,7 0 0 0 1172,129.365" style="stroke:#B7791F;stroke-width:0.5;" fill="#FFFBEB"/><path d="M1437.363,122.365 L1437.363,128.865 A3.5,3.5 0 0 0 1440.863,132.365 L1447.363,132.365 L1437.363,122.365" style="stroke:#B7791F;stroke-width:0.5;" fill="#FFFBEB"/><text x="1178" y="139.559" fill="#1F2937" font-size="13" textLength="209.542" font-family="Arial">No existe un Worker del Dashboard.</text><text x="1178" y="154.507" fill="#1F2937" font-size="13" textLength="254.363" font-family="Arial">No existe un tercer BFF desplegable en 2.1.</text></g><!--entity client--><g class="entity" data-qualified-name="Sistema GatoPago.client" id="ent0005" data-source-line="11"><rect x="189" y="403.365" width="242.74" height="78.296" fill="#DBEAFE" style="stroke:#627D98;stroke-width:0.5;" rx="7" ry="7"/><rect x="411.74" y="408.365" width="15" height="10" fill="#DBEAFE" style="stroke:#627D98;stroke-width:0.5;"/><rect x="409.74" y="410.365" width="4" height="2" fill="#DBEAFE" style="stroke:#627D98;stroke-width:0.5;"/><rect x="409.74" y="414.365" width="4" height="2" fill="#DBEAFE" style="stroke:#627D98;stroke-width:0.5;"/><text x="204" y="436.497" fill="#1F2937" font-size="14" textLength="57.586" font-family="Arial">App Web</text><text x="204" y="452.595" fill="#1F2937" font-size="14" textLength="84.431" font-family="Arial">[React + Vite]</text><text x="204" y="468.694" fill="#1F2937" font-size="14" textLength="202.74" font-family="Arial">Cuenta personal + ruta checkout</text></g><!--entity dashboard--><g class="entity" data-qualified-name="Sistema GatoPago.dashboard" id="ent0006" data-source-line="12"><rect x="248.5" y="499.365" width="124.431" height="78.296" fill="#DBEAFE" style="stroke:#627D98;stroke-width:0.5;" rx="7" ry="7"/><rect x="352.931" y="504.365" width="15" height="10" fill="#DBEAFE" style="stroke:#627D98;stroke-width:0.5;"/><rect x="350.931" y="506.365" width="4" height="2" fill="#DBEAFE" style="stroke:#627D98;stroke-width:0.5;"/><rect x="350.931" y="510.365" width="4" height="2" fill="#DBEAFE" style="stroke:#627D98;stroke-width:0.5;"/><text x="263.5" y="532.497" fill="#1F2937" font-size="14" textLength="68.489" font-family="Arial">Dashboard</text><text x="263.5" y="548.595" fill="#1F2937" font-size="14" textLength="84.431" font-family="Arial">[React + Vite]</text><text x="263.5" y="564.694" fill="#1F2937" font-size="14" textLength="66.158" font-family="Arial">Panel B2B</text></g><!--entity app_api--><g class="entity" data-qualified-name="Sistema GatoPago.app_api" id="ent0007" data-source-line="14"><rect x="644" y="499.365" width="271.103" height="78.296" fill="#DCFCE7" style="stroke:#627D98;stroke-width:0.5;" rx="7" ry="7"/><rect x="895.103" y="504.365" width="15" height="10" fill="#DCFCE7" style="stroke:#627D98;stroke-width:0.5;"/><rect x="893.103" y="506.365" width="4" height="2" fill="#DCFCE7" style="stroke:#627D98;stroke-width:0.5;"/><rect x="893.103" y="510.365" width="4" height="2" fill="#DCFCE7" style="stroke:#627D98;stroke-width:0.5;"/><text x="659" y="532.497" fill="#1F2937" font-size="14" textLength="83.282" font-family="Arial">App Backend</text><text x="659" y="548.595" fill="#1F2937" font-size="14" textLength="167.269" font-family="Arial">[Cloudflare Worker: server]</text><text x="659" y="564.694" fill="#1F2937" font-size="14" textLength="231.103" font-family="Arial">Identidad, UserOps y CCTP personal</text></g><!--entity app_db--><g class="entity" data-qualified-name="Sistema GatoPago.app_db" id="ent0008" data-source-line="15"><path d="M1212.5,479.865 C1212.5,469.865 1309.279,469.865 1309.279,469.865 C1309.279,469.865 1406.058,469.865 1406.058,479.865 L1406.058,537.161 C1406.058,547.161 1309.279,547.161 1309.279,547.161 C1309.279,547.161 1212.5,547.161 1212.5,537.161 L1212.5,479.865" style="stroke:#627D98;stroke-width:0.5;" fill="#DCFCE7"/><path d="M1212.5,479.865 C1212.5,489.865 1309.279,489.865 1309.279,489.865 C1309.279,489.865 1406.058,489.865 1406.058,479.865" style="stroke:#627D98;stroke-width:0.5;" fill="none"/><text x="1222.5" y="506.997" fill="#1F2937" font-size="14" textLength="48.248" font-family="Arial">App DB</text><text x="1222.5" y="523.095" fill="#1F2937" font-size="14" textLength="102.717" font-family="Arial">[D1: parmeliadb]</text><text x="1222.5" y="539.194" fill="#1F2937" font-size="14" textLength="173.558" font-family="Arial">Propiedad exclusiva de App</text></g><!--entity app_jobs--><g class="entity" data-qualified-name="Sistema GatoPago.app_jobs" id="ent0009" data-source-line="16"><path d="M1217.5,565.365 L1401.823,565.365 C1406.823,565.365 1406.823,594.513 1406.823,594.513 C1406.823,594.513 1406.823,623.661 1401.823,623.661 L1217.5,623.661 C1212.5,623.661 1212.5,594.513 1212.5,594.513 C1212.5,594.513 1212.5,565.365 1217.5,565.365" style="stroke:#627D98;stroke-width:0.5;" fill="#DCFCE7"/><path d="M1401.823,565.365 C1396.823,565.365 1396.823,594.513 1396.823,594.513 C1396.823,623.661 1401.823,623.661 1401.823,623.661" style="stroke:#627D98;stroke-width:0.5;" fill="none"/><text x="1217.5" y="583.497" fill="#1F2937" font-size="14" textLength="58.372" font-family="Arial">App Jobs</text><text x="1217.5" y="599.595" fill="#1F2937" font-size="14" textLength="117.517" font-family="Arial">[Cloudflare Queue]</text><text x="1217.5" y="615.694" fill="#1F2937" font-size="14" textLength="174.323" font-family="Arial">Índice y trabajos personales</text></g><!--entity payments_api--><g class="entity" data-qualified-name="Sistema GatoPago.payments_api" id="ent0010" data-source-line="18"><rect x="1195.5" y="357.365" width="227.537" height="94.395" fill="#DCFCE7" style="stroke:#627D98;stroke-width:0.5;" rx="7" ry="7"/><rect x="1403.037" y="362.365" width="15" height="10" fill="#DCFCE7" style="stroke:#627D98;stroke-width:0.5;"/><rect x="1401.037" y="364.365" width="4" height="2" fill="#DCFCE7" style="stroke:#627D98;stroke-width:0.5;"/><rect x="1401.037" y="368.365" width="4" height="2" fill="#DCFCE7" style="stroke:#627D98;stroke-width:0.5;"/><text x="1210.5" y="390.497" fill="#1F2937" font-size="14" textLength="120.62" font-family="Arial">Payments Backend</text><text x="1210.5" y="406.595" fill="#1F2937" font-size="14" textLength="120.593" font-family="Arial">[Cloudflare Worker:</text><text x="1210.5" y="422.694" fill="#1F2937" font-size="14" textLength="150.985" font-family="Arial">gatopago-payments-api]</text><text x="1210.5" y="438.792" fill="#1F2937" font-size="14" textLength="187.537" font-family="Arial">Checkout, intents y settlement</text></g><!--entity payments_db--><g class="entity" data-qualified-name="Sistema GatoPago.payments_db" id="ent0011" data-source-line="19"><path d="M1610,375.865 C1610,365.865 1762.42,365.865 1762.42,365.865 C1762.42,365.865 1914.84,365.865 1914.84,375.865 L1914.84,433.161 C1914.84,443.161 1762.42,443.161 1762.42,443.161 C1762.42,443.161 1610,443.161 1610,433.161 L1610,375.865" style="stroke:#627D98;stroke-width:0.5;" fill="#DCFCE7"/><path d="M1610,375.865 C1610,385.865 1762.42,385.865 1762.42,385.865 C1762.42,385.865 1914.84,385.865 1914.84,375.865" style="stroke:#627D98;stroke-width:0.5;" fill="none"/><text x="1620" y="402.997" fill="#1F2937" font-size="14" textLength="85.586" font-family="Arial">Payments DB</text><text x="1620" y="419.095" fill="#1F2937" font-size="14" textLength="284.84" font-family="Arial">[D1: gatopago-payments-semantic-20260826]</text><text x="1620" y="435.194" fill="#1F2937" font-size="14" textLength="210.896" font-family="Arial">Propiedad exclusiva de Payments</text></g><!--entity payment_jobs--><g class="entity" data-qualified-name="Sistema GatoPago.payment_jobs" id="ent0012" data-source-line="20"><path d="M1665,285.365 L1860.186,285.365 C1865.186,285.365 1865.186,314.513 1865.186,314.513 C1865.186,314.513 1865.186,343.661 1860.186,343.661 L1665,343.661 C1660,343.661 1660,314.513 1660,314.513 C1660,314.513 1660,285.365 1665,285.365" style="stroke:#627D98;stroke-width:0.5;" fill="#DCFCE7"/><path d="M1860.186,285.365 C1855.186,285.365 1855.186,314.513 1855.186,314.513 C1855.186,343.661 1860.186,343.661 1860.186,343.661" style="stroke:#627D98;stroke-width:0.5;" fill="none"/><text x="1665" y="303.497" fill="#1F2937" font-size="14" textLength="95.71" font-family="Arial">Payments Jobs</text><text x="1665" y="319.595" fill="#1F2937" font-size="14" textLength="117.517" font-family="Arial">[Cloudflare Queue]</text><text x="1665" y="335.694" fill="#1F2937" font-size="14" textLength="185.186" font-family="Arial">Reconcile, CCTP y webhooks</text></g><!--entity scheduler--><g class="entity" data-qualified-name="Sistema GatoPago.scheduler" id="ent0013" data-source-line="21"><rect x="1206.5" y="261.365" width="205.751" height="78.296" fill="#DCFCE7" style="stroke:#627D98;stroke-width:0.5;" rx="7" ry="7"/><rect x="1392.251" y="266.365" width="15" height="10" fill="#DCFCE7" style="stroke:#627D98;stroke-width:0.5;"/><rect x="1390.251" y="268.365" width="4" height="2" fill="#DCFCE7" style="stroke:#627D98;stroke-width:0.5;"/><rect x="1390.251" y="272.365" width="4" height="2" fill="#DCFCE7" style="stroke:#627D98;stroke-width:0.5;"/><text x="1221.5" y="294.497" fill="#1F2937" font-size="14" textLength="148.641" font-family="Arial">Payment Job Scheduler</text><text x="1221.5" y="310.595" fill="#1F2937" font-size="14" textLength="101.158" font-family="Arial">[Durable Object]</text><text x="1221.5" y="326.694" fill="#1F2937" font-size="14" textLength="165.751" font-family="Arial">Compacta y despierta jobs</text></g><g class="link" data-entity-1="ent0001" data-entity-2="ent0005" id="lnk18" data-link-type="dependency"><polygon points="188.884,470.656,179.503,467.656,183.913,471.198,180.371,475.609,188.884,470.656" fill="#52606D" style="stroke:#52606D;stroke-width:1;stroke-linejoin:miter;stroke-miterlimit:10;"/><path d="M58.1,454.836 C63.686,458.346 69.8,461.469 76,463.365 C111.81,474.312 147.067,475.221 183.913,471.198" style="stroke:#52606D;stroke-width:1;" fill="none"/><text x="110.5" y="459.559" fill="#1F2937" font-size="13" textLength="20.96" font-family="Arial">usa</text></g><g class="link" data-entity-1="ent0001" data-entity-2="ent0005" id="lnk19" data-link-type="dependency"><polygon points="188.903,438.875,180.022,434.617,183.905,438.731,179.791,442.614,188.903,438.875" fill="#52606D" style="stroke:#52606D;stroke-width:1;stroke-linejoin:miter;stroke-miterlimit:10;"/><path d="M58.025,435.089 C87.869,435.952 134.892,437.313 183.905,438.731" style="stroke:#52606D;stroke-width:1;" fill="none"/><text x="78" y="431.559" fill="#1F2937" font-size="13" textLength="85.992" font-family="Arial">paga link o QR</text></g><g class="link" data-entity-1="ent0002" data-entity-2="ent0006" id="lnk20" data-link-type="dependency"><polygon points="248.461,538.365,239.461,534.365,243.461,538.365,239.461,542.365,248.461,538.365" fill="#52606D" style="stroke:#52606D;stroke-width:1;stroke-linejoin:miter;stroke-miterlimit:10;"/><path d="M57.538,538.365 C100.029,538.365 183.505,538.365 243.461,538.365" style="stroke:#52606D;stroke-width:1;" fill="none"/><text x="91" y="534.559" fill="#1F2937" font-size="13" textLength="59.966" font-family="Arial">administra</text></g><g class="link" data-entity-1="ent0003" data-entity-2="ent0010" id="lnk21" data-link-type="dependency"><polygon points="1195.443,361.907,1189.311,354.2,1191.009,359.596,1185.613,361.294,1195.443,361.907" fill="#52606D" style="stroke:#52606D;stroke-width:1;stroke-linejoin:miter;stroke-miterlimit:10;"/><path d="M820.049,83.252 C852.31,90.061 898.232,102.541 934,123.365 C1059.797,196.604 1049.711,269.407 1172,348.365 C1179.424,353.158 1182.892,355.366 1191.009,359.596" style="stroke:#52606D;stroke-width:1;" fill="none"/><text x="1032.5" y="133.559" fill="#1F2937" font-size="13" textLength="41.907" font-family="Arial">API /v1</text></g><g class="link" data-entity-1="ent0005" data-entity-2="ent0007" id="lnk22" data-link-type="dependency"><polygon points="643.982,510.712,635.972,504.982,639.085,509.706,634.361,512.818,643.982,510.712" fill="#52606D" style="stroke:#52606D;stroke-width:1;stroke-linejoin:miter;stroke-miterlimit:10;"/><path d="M432.068,467.15 C496.928,480.483 572.205,495.957 639.085,509.706" style="stroke:#52606D;stroke-width:1;" fill="none"/><text x="452" y="469.559" fill="#1F2937" font-size="13" textLength="153.175" font-family="Arial">HTTPS / identidad y wallet</text></g><g class="link" data-entity-1="ent0005" data-entity-2="ent0014" id="lnk23" data-link-type="dependency"><polygon points="1684.285,826.296,1674.795,823.661,1679.339,827.031,1675.97,831.575,1684.285,826.296" fill="#52606D" style="stroke:#52606D;stroke-width:1;stroke-linejoin:miter;stroke-miterlimit:10;"/><path d="M422.243,481.442 C425.697,484.219 428.967,487.189 432,490.365 C448.893,508.05 434.189,523.706 450,542.365 C614.189,736.123 706.112,751.808 952,815.365 C1213.418,882.936 1533.445,848.692 1679.339,827.031" style="stroke:#52606D;stroke-width:1;" fill="none"/><text x="968.5" y="811.559" fill="#1F2937" font-size="13" textLength="169.083" font-family="Arial">Google / consume Email Link</text></g><g class="link" data-entity-1="ent0005" data-entity-2="ent0010" id="lnk24" data-link-type="dependency"><polygon points="1195.242,408.681,1186.097,405.027,1190.246,408.872,1186.401,413.021,1195.242,408.681" fill="#52606D" style="stroke:#52606D;stroke-width:1;stroke-linejoin:miter;stroke-miterlimit:10;"/><path d="M432.258,437.762 C626.541,430.357 1000.849,416.091 1190.246,408.872" style="stroke:#52606D;stroke-width:1;" fill="none"/><text x="707" y="415.559" fill="#1F2937" font-size="13" textLength="145.209" font-family="Arial">HTTPS / links y checkout</text></g><g class="link" data-entity-1="ent0006" data-entity-2="ent0007" id="lnk25" data-link-type="dependency"><polygon points="643.728,538.365,634.728,534.365,638.728,538.365,634.728,542.365,643.728,538.365" fill="#52606D" style="stroke:#52606D;stroke-width:1;stroke-linejoin:miter;stroke-miterlimit:10;"/><path d="M372.552,538.365 C441.037,538.365 549.239,538.365 638.728,538.365" style="stroke:#52606D;stroke-width:1;" fill="none"/><text x="463.5" y="534.559" fill="#1F2937" font-size="13" textLength="130.057" font-family="Arial">HTTPS / autenticación</text></g><g class="link" data-entity-1="ent0006" data-entity-2="ent0010" id="lnk26" data-link-type="dependency"><polygon points="1195.305,421.566,1185.832,418.871,1190.355,422.269,1186.957,426.791,1195.305,421.566" fill="#52606D" style="stroke:#52606D;stroke-width:1;stroke-linejoin:miter;stroke-miterlimit:10;"/><path d="M372.64,522.071 C392.954,514.652 414.766,504.328 432,490.365 C443.206,481.286 437.37,470.327 450,463.365 C473.555,450.38 907.178,453.375 934,451.365 C1022.051,444.765 1116.217,432.794 1190.355,422.269" style="stroke:#52606D;stroke-width:1;" fill="none"/><text x="726" y="447.559" fill="#1F2937" font-size="13" textLength="107.637" font-family="Arial">HTTPS / merchant</text></g><g class="link" data-entity-1="ent0007" data-entity-2="ent0010" id="lnk27" data-link-type="dependency"><polygon points="1195.39,443.774,1185.635,445.13,1191.144,446.414,1189.86,451.924,1195.39,443.774" fill="#52606D" style="stroke:#52606D;stroke-width:1;stroke-linejoin:miter;stroke-miterlimit:10;"/><path d="M915.026,523.42 C1021.808,511.529 1153.362,496.805 1154,496.365 C1168.398,486.432 1159.15,473.233 1172,461.365 C1179.075,454.831 1182.76,451.628 1191.144,446.414" style="stroke:#52606D;stroke-width:1;" fill="none"/><text x="1007.85" y="477.559" fill="#1F2937" font-size="13" textLength="90.327" font-family="Arial">Service Binding</text><text x="954" y="492.507" fill="#1F2937" font-size="13" textLength="198.028" font-family="Arial">única dependencia entre dominios</text></g><g class="link" data-entity-1="ent0007" data-entity-2="ent0008" id="lnk28" data-link-type="dependency"><polygon points="1212.458,529.203,1202.902,526.82,1207.534,530.068,1204.286,534.7,1212.458,529.203" fill="#52606D" style="stroke:#52606D;stroke-width:1;stroke-linejoin:miter;stroke-miterlimit:10;"/><path d="M915.197,543.931 C986.359,545.377 1075.079,544.814 1154,537.365 C1173.019,535.57 1188.265,533.453 1207.534,530.068" style="stroke:#52606D;stroke-width:1;" fill="none"/><text x="1018" y="533.559" fill="#1F2937" font-size="13" textLength="70.091" font-family="Arial">lee / escribe</text></g><g class="link" data-entity-1="ent0007" data-entity-2="ent0009" id="lnk29" data-link-type="dependency"><polygon points="1212.203,588.985,1203.474,584.424,1207.213,588.669,1202.969,592.408,1212.203,588.985" fill="#52606D" style="stroke:#52606D;stroke-width:1;stroke-linejoin:miter;stroke-miterlimit:10;"/><path d="M915.16,561.439 C927.596,563.241 940.02,564.919 952,566.365 C1039.831,576.965 1135.352,584.124 1207.213,588.669" style="stroke:#52606D;stroke-width:1;" fill="none"/><text x="998" y="562.559" fill="#1F2937" font-size="13" textLength="110.563" font-family="Arial">produce / consume</text></g><g class="link" data-entity-1="ent0010" data-entity-2="ent0011" id="lnk30" data-link-type="dependency"><polygon points="1609.863,404.365,1600.863,400.365,1604.863,404.365,1600.863,408.365,1609.863,404.365" fill="#52606D" style="stroke:#52606D;stroke-width:1;stroke-linejoin:miter;stroke-miterlimit:10;"/><path d="M1423.724,404.365 C1480.085,404.365 1544.008,404.365 1604.863,404.365" style="stroke:#52606D;stroke-width:1;" fill="none"/><text x="1493.5" y="400.559" fill="#1F2937" font-size="13" textLength="70.091" font-family="Arial">lee / escribe</text></g><g class="link" data-entity-1="ent0010" data-entity-2="ent0012" id="lnk31" data-link-type="dependency"><polygon points="1659.784,334.663,1650.175,332.502,1654.88,335.641,1651.741,340.347,1659.784,334.663" fill="#52606D" style="stroke:#52606D;stroke-width:1;stroke-linejoin:miter;stroke-miterlimit:10;"/><path d="M1423.724,381.77 C1496.262,367.295 1584.706,349.645 1654.88,335.641" style="stroke:#52606D;stroke-width:1;" fill="none"/><text x="1473.5" y="345.559" fill="#1F2937" font-size="13" textLength="110.563" font-family="Arial">produce / consume</text></g><g class="link" data-entity-1="ent0013" data-entity-2="ent0012" id="lnk32" data-link-type="dependency"><polygon points="1659.83,311.209,1650.959,306.931,1654.833,311.054,1650.71,314.928,1659.83,311.209" fill="#52606D" style="stroke:#52606D;stroke-width:1;stroke-linejoin:miter;stroke-miterlimit:10;"/><path d="M1412.557,303.533 C1486.483,305.828 1580.996,308.762 1654.833,311.054" style="stroke:#52606D;stroke-width:1;" fill="none"/><text x="1467" y="301.559" fill="#1F2937" font-size="13" textLength="123.576" font-family="Arial">publica jobs vencidos</text></g><g class="link" data-entity-1="ent0007" data-entity-2="ent0014" id="lnk33" data-link-type="dependency"><polygon points="1684.49,814.896,1675.44,811.011,1679.491,814.96,1675.542,819.01,1684.49,814.896" fill="#52606D" style="stroke:#52606D;stroke-width:1;stroke-linejoin:miter;stroke-miterlimit:10;"/><path d="M801.333,577.516 C828.982,625.302 882.513,704.638 952,744.365 C1075.52,814.984 1502.115,817.213 1679.491,814.96" style="stroke:#52606D;stroke-width:1;" fill="none"/><text x="1210" y="791.559" fill="#1F2937" font-size="13" textLength="199.399" font-family="Arial">JWKS / tokens / solicita Email Link</text></g><g class="link" data-entity-1="ent0010" data-entity-2="ent0014" id="lnk34" data-link-type="dependency"><polygon points="1690.005,782.213,1683.498,774.819,1685.462,780.125,1680.156,782.088,1690.005,782.213" fill="#52606D" style="stroke:#52606D;stroke-width:1;stroke-linejoin:miter;stroke-miterlimit:10;"/><path d="M1423.764,439.066 C1432.624,445.316 1440.599,452.683 1447,461.365 C1496.813,528.924 1421.272,577.717 1465,649.365 C1504.885,714.715 1542.969,705.373 1610,742.365 C1635.559,756.47 1659.856,768.354 1685.462,780.125" style="stroke:#52606D;stroke-width:1;" fill="none"/><text x="1486" y="645.559" fill="#1F2937" font-size="13" textLength="85.249" font-family="Arial">JWKS / tokens</text></g><g class="link" data-entity-1="ent0007" data-entity-2="ent0015" id="lnk35" data-link-type="dependency"><polygon points="1240.989,674.487,1232.874,668.905,1236.073,673.571,1231.408,676.77,1240.989,674.487" fill="#52606D" style="stroke:#52606D;stroke-width:1;stroke-linejoin:miter;stroke-miterlimit:10;"/><path d="M871.227,577.406 C897.035,587.67 925.372,598.153 952,606.365 C1050.954,636.879 1163.76,660.092 1236.073,673.571" style="stroke:#52606D;stroke-width:1;" fill="none"/><text x="991" y="602.559" fill="#1F2937" font-size="13" textLength="124.274" font-family="Arial">OTP legacy Business</text></g><g class="link" data-entity-1="ent0007" data-entity-2="ent0016" id="lnk36" data-link-type="dependency"><polygon points="1706.912,722.128,1697.307,719.947,1702.006,723.097,1698.857,727.796,1706.912,722.128" fill="#52606D" style="stroke:#52606D;stroke-width:1;stroke-linejoin:miter;stroke-miterlimit:10;"/><path d="M828.612,577.626 C861.854,603.46 907.867,636.738 952,660.365 C1044.272,709.763 1069.073,725.383 1172,744.365 C1366.319,780.2 1597.305,743.766 1702.006,723.097" style="stroke:#52606D;stroke-width:1;" fill="none"/><text x="1296" y="740.559" fill="#1F2937" font-size="13" textLength="27.447" font-family="Arial">RPC</text></g><g class="link" data-entity-1="ent0010" data-entity-2="ent0016" id="lnk37" data-link-type="dependency"><polygon points="1706.653,692.559,1699.633,685.651,1701.972,690.802,1696.821,693.141,1706.653,692.559" fill="#52606D" style="stroke:#52606D;stroke-width:1;stroke-linejoin:miter;stroke-miterlimit:10;"/><path d="M1423.664,446.816 C1431.8,451.308 1439.674,456.157 1447,461.365 C1535.503,524.28 1522.156,579.532 1610,643.365 C1639.314,664.667 1671.792,679.473 1701.972,690.802" style="stroke:#52606D;stroke-width:1;" fill="none"/><text x="1493" y="471.559" fill="#1F2937" font-size="13" textLength="71.506" font-family="Arial">RPC / Circle</text></g><g class="link" data-entity-1="ent0007" data-entity-2="ent0017" id="lnk38" data-link-type="dependency"><polygon points="1635.646,178.878,1626.428,175.408,1630.654,179.169,1626.894,183.395,1635.646,178.878" fill="#52606D" style="stroke:#52606D;stroke-width:1;stroke-linejoin:miter;stroke-miterlimit:10;"/><path d="M889.115,499.216 C906.695,488.264 922.783,474.512 934,457.365 C963.885,411.68 912.882,250.444 952,212.365 C971.727,193.162 1419.507,190.79 1447,189.365 C1509.126,186.144 1573.145,182.522 1630.654,179.169" style="stroke:#52606D;stroke-width:1;" fill="none"/><text x="1264" y="185.559" fill="#1F2937" font-size="13" textLength="91.038" font-family="Arial">UserOperations</text></g><g class="link" data-entity-1="ent0010" data-entity-2="ent0017" id="lnk39" data-link-type="dependency"><polygon points="1635.696,202.207,1625.851,201.923,1631.07,204.105,1628.888,209.324,1635.696,202.207" fill="#52606D" style="stroke:#52606D;stroke-width:1;stroke-linejoin:miter;stroke-miterlimit:10;"/><path d="M1423.519,368.406 C1432.191,362.664 1440.199,356.028 1447,348.365 C1466.897,325.944 1445.171,305.846 1465,283.365 C1505.458,237.496 1540.212,262.905 1592,230.365 C1601.063,224.67 1600.615,219.511 1610,214.365 C1618.151,209.895 1622.183,207.752 1631.07,204.105" style="stroke:#52606D;stroke-width:1;" fill="none"/><text x="1468" y="226.559" fill="#1F2937" font-size="13" textLength="121.405" font-family="Arial">pago y reconciliación</text></g><g class="legend" data-source-line="67"><rect x="1587.277" y="894.936" width="340.723" height="110.592" fill="none" style="stroke:#000;stroke-width:1;" rx="7" ry="7"/><text x="1592.277" y="913.068" fill="#1F2937" font-size="14" textLength="315.178" font-family="Arial">C4: persona -> contenedor -> datos/infraestructura</text><text x="1596.167" y="931.166" fill="#1F2937" font-size="14" textLength="36.552" font-weight="700" font-family="Arial">Color</text><text x="1654.512" y="931.166" fill="#1F2937" font-size="14" textLength="46.676" font-weight="700" font-family="Arial">Estado</text><rect x="1592.277" y="934.133" width="58.345" height="16.099" fill="#DCFCE7" style="stroke:none;"/><text x="1596.167" y="947.265" fill="#1F2937" font-size="14" textLength="37.358" font-family="Arial">Verde</text><text x="1654.512" y="947.265" fill="#1F2937" font-size="14" textLength="90.269" font-family="Arial">Remoto actual</text><rect x="1592.277" y="950.232" width="58.345" height="16.099" fill="#FEF3C7" style="stroke:none;"/><text x="1596.167" y="963.364" fill="#1F2937" font-size="14" textLength="50.565" font-family="Arial">Amarillo</text><text x="1654.512" y="963.364" fill="#1F2937" font-size="14" textLength="182.123" font-family="Arial">Preparado; remoto pendiente</text><rect x="1592.277" y="966.331" width="58.345" height="16.099" fill="#DBEAFE" style="stroke:none;"/><text x="1596.167" y="979.462" fill="#1F2937" font-size="14" textLength="27.234" font-family="Arial">Azul</text><text x="1654.512" y="979.462" fill="#1F2937" font-size="14" textLength="56.034" font-family="Arial">Frontend</text><rect x="1592.277" y="982.429" width="58.345" height="16.099" fill="#E5E7EB" style="stroke:none;"/><text x="1596.167" y="995.561" fill="#1F2937" font-size="14" textLength="25.662" font-family="Arial">Gris</text><text x="1654.512" y="995.561" fill="#1F2937" font-size="14" textLength="264.599" font-family="Arial">Compatibilidad diferida fuera del corte App</text><line x1="1592.277" y1="918.035" x2="1923" y2="918.035" style="stroke:#1F2937;stroke-width:1;"/><line x1="1592.277" y1="934.133" x2="1923" y2="934.133" style="stroke:#1F2937;stroke-width:1;"/><line x1="1592.277" y1="950.232" x2="1923" y2="950.232" style="stroke:#1F2937;stroke-width:1;"/><line x1="1592.277" y1="966.331" x2="1923" y2="966.331" style="stroke:#1F2937;stroke-width:1;"/><line x1="1592.277" y1="982.429" x2="1923" y2="982.429" style="stroke:#1F2937;stroke-width:1;"/><line x1="1592.277" y1="998.528" x2="1923" y2="998.528" style="stroke:#1F2937;stroke-width:1;"/><line x1="1592.277" y1="918.035" x2="1592.277" y2="998.528" style="stroke:#1F2937;stroke-width:1;"/><line x1="1650.622" y1="918.035" x2="1650.622" y2="998.528" style="stroke:#1F2937;stroke-width:1;"/><line x1="1923" y1="918.035" x2="1923" y2="998.528" style="stroke:#1F2937;stroke-width:1;"/></g><?plantuml-src VLRRSXj547tVhsZCOsGh4I6X1AHAabUvuDYAv0iKfbopkorfujsPPMRMu62g-07U-9EyyPe_uKiuipTBbfItbQRxT4_twTFpXLHnMYHCLsx96H_aHPO6JhgKwQLmUY8MclxxwnyQFIKbRpYbNfzYhHmhJhHX6mGfpnqvJKOkbeuIQJXsKgiW4B7JXlOcRAnMOe-4fRpyRawEUQ5ZgSkJgB1IiRNDsKnQnvcWOMzOdVUY8CX5V2qMV7_QfBX7VmI4lB9SArQEzWPvJXSSNQgVfmn4UaJdql4lbsfKu5pKYOWK1wR0xtZ9yRKkN1ahJgK76PqSdKolBiBXElIXiCj82vDiWa-4GeMQb9F6S0LfCyiXxiJAWurINIJpL1Yc2ssksVJ9ihbX0-JN2Hna8f8EdU7FazpIBOr6fvFs9cL8aUTN8fTrmAFNvo429iA9I5YkuXqE4UhmIPzoOJ9EfKWYdxdHkMJW4_yEFbXv8mYaW4EBcqJhiByMNDIORtHaro_mpXy2zzFVAf4n8rbdaCHxRTk4sRRGx-6_2hvUfOcupV1XFrkgIxK05t9mOJ-lxVTH2T_nkhKTafwspbVEiWF3lLL5ozhZSxLhisWBk1dGWfDeKxpVUznxzlYRthFTbMtWrkFlg74RUtUXfuofZ6NAdOeMj_GRHqkjhzSYR5HwMw5z59fX8f8YPUClMw1t48IJw3rcsvSKFY2-G9I4BQvdyEsXorYsSLqDz6SGn3vhsXj38SgI3Wgtl5GljLu0-n65cP0f7KbrNQBC6xCA9FpnD9mU3uuQbCewvOM8Ro_Li5OFoC-SZKmgJU7Ifl8VdvsUJSF6UpeP8U98cZZbgZv6tyW4p7mOJkd4wqqcZ2CHnxf06pfDzwQW5Nmwb-fiTZXg9f8LXUTlAoLP2gasC8Dg16X__qMZDNqghDZwFnWcA4LLIDExQT3eP6bqhp1z4aac5MJHY01QMHwlqRfFWybhwjuyyOqeiRr98nXzUdLwEfbHbsIZD9v28atPhTgtNUbJtRYkNmUso7YbWQiU3v9emlWR-KbiX3Uulylsl4JXXrV68fQVFge7vZk2P6pG0UM21cwBxGmIwnLgAA5KQW79-bSX2eYTGsiOCoNGKOTHIxIliCRAMuMhfR4FBlfYi8sDZ7Z3f1oylkTPKiGhLGlMqbdBRmlgBkFTyFV3kCsyY59_r_BdZRzhyl1wAmr_S_63BwhJ466B3wlXB37vAutVI72N_rgGQb3xT8BfgKQQXkrxOBLrxPJs2IEyfHph1eXMpVWQIZsK_NgJiX7-lM8tqLf3h_BWggarLjOSX3WufaWxfpFIyuQq4DKmfKmdkhvCTsxq1rRT9a3vW38w1R5IV1l71_2PVVgOQj3E-r2td8yETUDsUs5qaKEtuRHtyOZ-lzXeQyjioSe5NZXUWx2OEtw1a2fKB62DzC4X7pEgk4wJmKzlm-FJsTNXy200sybVQEDQgtK1pB769lFlBofKlNrzrjI-YmuU6a4ZOnWDn-DoNVWB-dM277i7JrO3uyJ_A5-I01azxJUl1VBjQ9-TL6gVqxOhrTm8XkeLiSEMWjFTzpJIAMpm4Ledq8Kx__TtNnwEngFm-GiwPmDDlwCfPnhlLYoo0W_1scWSZhyQmMW0nPSf6d974yDuAm7eMvImTF7Au0MEM-XXE1Y7yFfG08d6famrQOx3hyFduV05lJJIuhXSdqv6O9BNsNfd2PeNu69Pov8KleD004vLb-1_?></g></svg>