<svg xmlns="http://www.w3.org/2000/svg" xmlns:xlink="http://www.w3.org/1999/xlink" version="1.1" data-diagram-type="SEQUENCE" style="width:1798px;height:1415px;background:#FCFCFD;" width="1798px" height="1415px" viewBox="0 0 1798 1415" zoomAndPan="magnify" preserveAspectRatio="none" contentStyleType="text/css"><?plantuml 1.2026.7?><defs/><g font-family="sans-serif" lengthAdjust="spacing"><rect x="0" y="0" width="1798" height="1415" fill="#FCFCFD" style="stroke:none;"/><g class="title" data-source-line="2"><text x="709.987" y="28.132" fill="#1F2937" font-size="14" textLength="376.571" font-weight="700" font-family="Arial">Secuencia — Reconciliar settlement y entregar webhook</text></g><rect x="51.855" y="179.095" width="1571.739" height="765.665" fill="#F8FAFC" style="stroke:#F8FAFC;stroke-width:1;" rx="7" ry="7"/><rect x="51.855" y="179.095" width="1571.739" height="765.665" fill="none" style="stroke:#829AB1;stroke-width:1.5;" rx="7" ry="7"/><rect x="523.701" y="478.931" width="1074.894" height="277.188" fill="#F8FAFC" style="stroke:#F8FAFC;stroke-width:1;" rx="7" ry="7"/><rect x="523.701" y="478.931" width="1074.894" height="277.188" fill="none" style="stroke:#829AB1;stroke-width:1.5;" rx="7" ry="7"/><rect x="51.855" y="1049.606" width="1686.314" height="219.29" fill="#F8FAFC" style="stroke:#F8FAFC;stroke-width:1;" rx="7" ry="7"/><rect x="51.855" y="1049.606" width="1686.314" height="219.29" fill="none" style="stroke:#829AB1;stroke-width:1.5;" rx="7" ry="7"/><g><title>Payments Jobs</title><rect x="64.355" y="109.197" width="8" height="1233.596" fill="#000" fill-opacity="0"/><line x1="67.855" y1="109.197" x2="67.855" y2="1342.793" style="stroke:#9FB3C8;stroke-width:0.5;stroke-dasharray:5,5;"/></g><g><title>Job Runtime</title><rect x="278.41" y="109.197" width="8" height="1233.596" fill="#000" fill-opacity="0"/><line x1="281.91" y1="109.197" x2="281.91" y2="1342.793" style="stroke:#9FB3C8;stroke-width:0.5;stroke-dasharray:5,5;"/></g><g><title>PAYMENTS_DB</title><rect x="536.201" y="109.197" width="8" height="1233.596" fill="#000" fill-opacity="0"/><line x1="539.701" y1="109.197" x2="539.701" y2="1342.793" style="stroke:#9FB3C8;stroke-width:0.5;stroke-dasharray:5,5;"/></g><g><title>Reconciler</title><rect x="760.355" y="109.197" width="8" height="1233.596" fill="#000" fill-opacity="0"/><line x1="763.855" y1="109.197" x2="763.855" y2="1342.793" style="stroke:#9FB3C8;stroke-width:0.5;stroke-dasharray:5,5;"/></g><g><title>RPC origen</title><rect x="960.667" y="109.197" width="8" height="1233.596" fill="#000" fill-opacity="0"/><line x1="964.167" y1="109.197" x2="964.167" y2="1342.793" style="stroke:#9FB3C8;stroke-width:0.5;stroke-dasharray:5,5;"/></g><g><title>Circle Iris API</title><rect x="1063.243" y="109.197" width="8" height="1233.596" fill="#000" fill-opacity="0"/><line x1="1066.743" y1="109.197" x2="1066.743" y2="1342.793" style="stroke:#9FB3C8;stroke-width:0.5;stroke-dasharray:5,5;"/></g><g><title>Relayer Payments</title><rect x="1186.826" y="109.197" width="8" height="1233.596" fill="#000" fill-opacity="0"/><line x1="1190.326" y1="109.197" x2="1190.326" y2="1342.793" style="stroke:#9FB3C8;stroke-width:0.5;stroke-dasharray:5,5;"/></g><g><title>MessageTransmitter</title><rect x="1434.098" y="109.197" width="8" height="1233.596" fill="#000" fill-opacity="0"/><line x1="1437.598" y1="109.197" x2="1437.598" y2="1342.793" style="stroke:#9FB3C8;stroke-width:0.5;stroke-dasharray:5,5;"/></g><g><title>Wallet del negocio</title><rect x="1579.094" y="109.197" width="8" height="1233.596" fill="#000" fill-opacity="0"/><line x1="1582.594" y1="109.197" x2="1582.594" y2="1342.793" style="stroke:#9FB3C8;stroke-width:0.5;stroke-dasharray:5,5;"/></g><g><title>Webhook endpoint</title><rect x="1718.669" y="109.197" width="8" height="1233.596" fill="#000" fill-opacity="0"/><line x1="1722.169" y1="109.197" x2="1722.169" y2="1342.793" style="stroke:#9FB3C8;stroke-width:0.5;stroke-dasharray:5,5;"/></g><path d="M15,83.099 L120.71,83.099 C125.71,83.099 125.71,96.148 125.71,96.148 C125.71,96.148 125.71,109.197 120.71,109.197 L15,109.197 C10,109.197 10,96.148 10,96.148 C10,96.148 10,83.099 15,83.099" style="stroke:#627D98;stroke-width:0.5;" fill="#FFF"/><path d="M120.71,83.099 C115.71,83.099 115.71,96.148 115.71,96.148 C115.71,109.197 120.71,109.197 120.71,109.197" style="stroke:#627D98;stroke-width:0.5;" fill="none"/><text x="15" y="101.23" fill="#1F2937" font-size="14" textLength="95.71" font-family="Arial">Payments Jobs</text><rect x="235.614" y="78.099" width="92.593" height="30.099" fill="#FFF" style="stroke:#627D98;stroke-width:0.5;" rx="7" ry="7"/><text x="242.614" y="98.23" fill="#1F2937" font-size="14" textLength="78.593" font-family="Arial">Job Runtime</text><text x="484.577" y="106.23" fill="#1F2937" font-size="14" textLength="104.248" font-family="Arial">PAYMENTS_DB</text><path d="M521.701,57.099 C521.701,47.099 539.701,47.099 539.701,47.099 C539.701,47.099 557.701,47.099 557.701,57.099 L557.701,83.099 C557.701,93.099 539.701,93.099 539.701,93.099 C539.701,93.099 521.701,93.099 521.701,83.099 L521.701,57.099" style="stroke:#627D98;stroke-width:0.5;" fill="#FFF"/><path d="M521.701,57.099 C521.701,67.099 539.701,67.099 539.701,67.099 C539.701,67.099 557.701,67.099 557.701,57.099" style="stroke:#627D98;stroke-width:0.5;" fill="none"/><rect x="723.786" y="78.099" width="80.138" height="30.099" fill="#FFF" style="stroke:#627D98;stroke-width:0.5;" rx="7" ry="7"/><text x="730.786" y="98.23" fill="#1F2937" font-size="14" textLength="66.138" font-family="Arial">Reconciler</text><rect x="920.985" y="78.099" width="86.365" height="30.099" fill="#FFF" style="stroke:#627D98;stroke-width:0.5;" rx="7" ry="7"/><text x="927.985" y="98.23" fill="#1F2937" font-size="14" textLength="72.365" font-family="Arial">RPC origen</text><rect x="1017.35" y="78.099" width="98.786" height="30.099" fill="#FFF" style="stroke:#627D98;stroke-width:0.5;" rx="7" ry="7"/><text x="1024.35" y="98.23" fill="#1F2937" font-size="14" textLength="84.786" font-family="Arial">Circle Iris API</text><rect x="1126.136" y="78.099" width="128.379" height="30.099" fill="#FFF" style="stroke:#627D98;stroke-width:0.5;" rx="7" ry="7"/><text x="1133.136" y="98.23" fill="#1F2937" font-size="14" textLength="114.379" font-family="Arial">Relayer Payments</text><rect x="1366.802" y="62" width="141.593" height="46.197" fill="#FFF" style="stroke:#627D98;stroke-width:0.5;" rx="7" ry="7"/><text x="1373.802" y="82.132" fill="#1F2937" font-size="14" textLength="127.593" font-family="Arial">MessageTransmitter</text><text x="1393.233" y="98.23" fill="#1F2937" font-size="14" textLength="88.73" font-family="Arial">en red destino</text><rect x="1518.395" y="78.099" width="128.399" height="30.099" fill="#FFF" style="stroke:#627D98;stroke-width:0.5;" rx="7" ry="7"/><text x="1525.395" y="98.23" fill="#1F2937" font-size="14" textLength="114.399" font-family="Arial">Wallet del negocio</text><rect x="1656.794" y="78.099" width="130.751" height="30.099" fill="#FFF" style="stroke:#627D98;stroke-width:0.5;" rx="7" ry="7"/><text x="1663.794" y="98.23" fill="#1F2937" font-size="14" textLength="116.751" font-family="Arial">Webhook endpoint</text><path d="M15,1342.793 L120.71,1342.793 C125.71,1342.793 125.71,1355.843 125.71,1355.843 C125.71,1355.843 125.71,1368.892 120.71,1368.892 L15,1368.892 C10,1368.892 10,1355.843 10,1355.843 C10,1355.843 10,1342.793 15,1342.793" style="stroke:#627D98;stroke-width:0.5;" fill="#FFF"/><path d="M120.71,1342.793 C115.71,1342.793 115.71,1355.843 115.71,1355.843 C115.71,1368.892 120.71,1368.892 120.71,1368.892" style="stroke:#627D98;stroke-width:0.5;" fill="none"/><text x="15" y="1360.925" fill="#1F2937" font-size="14" textLength="95.71" font-family="Arial">Payments Jobs</text><rect x="235.614" y="1342.793" width="92.593" height="30.099" fill="#FFF" style="stroke:#627D98;stroke-width:0.5;" rx="7" ry="7"/><text x="242.614" y="1362.925" fill="#1F2937" font-size="14" textLength="78.593" font-family="Arial">Job Runtime</text><text x="484.577" y="1355.925" fill="#1F2937" font-size="14" textLength="104.248" font-family="Arial">PAYMENTS_DB</text><path d="M521.701,1368.892 C521.701,1358.892 539.701,1358.892 539.701,1358.892 C539.701,1358.892 557.701,1358.892 557.701,1368.892 L557.701,1394.892 C557.701,1404.892 539.701,1404.892 539.701,1404.892 C539.701,1404.892 521.701,1404.892 521.701,1394.892 L521.701,1368.892" style="stroke:#627D98;stroke-width:0.5;" fill="#FFF"/><path d="M521.701,1368.892 C521.701,1378.892 539.701,1378.892 539.701,1378.892 C539.701,1378.892 557.701,1378.892 557.701,1368.892" style="stroke:#627D98;stroke-width:0.5;" fill="none"/><rect x="723.786" y="1342.793" width="80.138" height="30.099" fill="#FFF" style="stroke:#627D98;stroke-width:0.5;" rx="7" ry="7"/><text x="730.786" y="1362.925" fill="#1F2937" font-size="14" textLength="66.138" font-family="Arial">Reconciler</text><rect x="920.985" y="1342.793" width="86.365" height="30.099" fill="#FFF" style="stroke:#627D98;stroke-width:0.5;" rx="7" ry="7"/><text x="927.985" y="1362.925" fill="#1F2937" font-size="14" textLength="72.365" font-family="Arial">RPC origen</text><rect x="1017.35" y="1342.793" width="98.786" height="30.099" fill="#FFF" style="stroke:#627D98;stroke-width:0.5;" rx="7" ry="7"/><text x="1024.35" y="1362.925" fill="#1F2937" font-size="14" textLength="84.786" font-family="Arial">Circle Iris API</text><rect x="1126.136" y="1342.793" width="128.379" height="30.099" fill="#FFF" style="stroke:#627D98;stroke-width:0.5;" rx="7" ry="7"/><text x="1133.136" y="1362.925" fill="#1F2937" font-size="14" textLength="114.379" font-family="Arial">Relayer Payments</text><rect x="1366.802" y="1342.793" width="141.593" height="46.197" fill="#FFF" style="stroke:#627D98;stroke-width:0.5;" rx="7" ry="7"/><text x="1373.802" y="1362.925" fill="#1F2937" font-size="14" textLength="127.593" font-family="Arial">MessageTransmitter</text><text x="1393.233" y="1379.024" fill="#1F2937" font-size="14" textLength="88.73" font-family="Arial">en red destino</text><rect x="1518.395" y="1342.793" width="128.399" height="30.099" fill="#FFF" style="stroke:#627D98;stroke-width:0.5;" rx="7" ry="7"/><text x="1525.395" y="1362.925" fill="#1F2937" font-size="14" textLength="114.399" font-family="Arial">Wallet del negocio</text><rect x="1656.794" y="1342.793" width="130.751" height="30.099" fill="#FFF" style="stroke:#627D98;stroke-width:0.5;" rx="7" ry="7"/><text x="1663.794" y="1362.925" fill="#1F2937" font-size="14" textLength="116.751" font-family="Arial">Webhook endpoint</text><polygon points="269.91,134.146,279.91,138.146,269.91,142.146,273.91,138.146" fill="#52606D" style="stroke:#52606D;stroke-width:1;stroke-linejoin:miter;stroke-miterlimit:10;"/><line x1="67.855" y1="138.146" x2="275.91" y2="138.146" style="stroke:#52606D;stroke-width:1;"/><text x="74.855" y="133.391" fill="#1F2937" font-size="13" textLength="190.055" font-family="Arial">entrega PaymentJobMessage v2</text><polygon points="527.701,163.095,537.701,167.095,527.701,171.095,531.701,167.095" fill="#52606D" style="stroke:#52606D;stroke-width:1;stroke-linejoin:miter;stroke-miterlimit:10;"/><line x1="281.91" y1="167.095" x2="533.701" y2="167.095" style="stroke:#52606D;stroke-width:1;"/><text x="288.91" y="162.34" fill="#1F2937" font-size="13" textLength="147.063" font-family="Arial">claim dedupe key + lease</text><path d="M58.855,179.095 L112.026,179.095 L112.026,186.043 L102.026,196.043 L51.855,196.043 L51.855,186.095 A7,7 0 0 1 58.855,179.095" style="stroke:#829AB1;stroke-width:1.5;" fill="#F8FAFC"/><rect x="51.855" y="179.095" width="1571.739" height="765.665" fill="none" style="stroke:#829AB1;stroke-width:1.5;" rx="7" ry="7"/><text x="66.855" y="192.289" fill="#1F2937" font-size="13" textLength="15.171" font-weight="700" font-family="Arial">alt</text><text x="127.026" y="191.413" fill="#1F2937" font-size="11" textLength="124.078" font-weight="700" font-family="Arial">[trabajo ya completado]</text><polygon points="292.91,222.992,282.91,226.992,292.91,230.992,288.91,226.992" fill="#52606D" style="stroke:#52606D;stroke-width:1;stroke-linejoin:miter;stroke-miterlimit:10;"/><line x1="286.91" y1="226.992" x2="538.701" y2="226.992" style="stroke:#52606D;stroke-width:1;stroke-dasharray:2,2;"/><text x="298.91" y="222.237" fill="#1F2937" font-size="13" textLength="59.979" font-family="Arial">completed</text><polygon points="78.855,251.941,68.855,255.941,78.855,259.941,74.855,255.941" fill="#52606D" style="stroke:#52606D;stroke-width:1;stroke-linejoin:miter;stroke-miterlimit:10;"/><line x1="72.855" y1="255.941" x2="280.91" y2="255.941" style="stroke:#52606D;stroke-width:1;"/><text x="84.855" y="251.186" fill="#1F2937" font-size="13" textLength="20.23" font-family="Arial">ack</text><line x1="51.855" y1="264.941" x2="1623.594" y2="264.941" style="stroke:#829AB1;stroke-width:1;stroke-dasharray:2,2;"/><text x="56.855" y="277.259" fill="#1F2937" font-size="11" textLength="117.987" font-weight="700" font-family="Arial">[lease todavía vigente]</text><polygon points="292.91,299.539,282.91,303.539,292.91,307.539,288.91,303.539" fill="#52606D" style="stroke:#52606D;stroke-width:1;stroke-linejoin:miter;stroke-miterlimit:10;"/><line x1="286.91" y1="303.539" x2="538.701" y2="303.539" style="stroke:#52606D;stroke-width:1;stroke-dasharray:2,2;"/><text x="298.91" y="298.784" fill="#1F2937" font-size="13" textLength="166.588" font-family="Arial">leased + segundos restantes</text><polygon points="78.855,328.487,68.855,332.487,78.855,336.487,74.855,332.487" fill="#52606D" style="stroke:#52606D;stroke-width:1;stroke-linejoin:miter;stroke-miterlimit:10;"/><line x1="72.855" y1="332.487" x2="280.91" y2="332.487" style="stroke:#52606D;stroke-width:1;"/><text x="84.855" y="327.732" fill="#1F2937" font-size="13" textLength="92.485" font-family="Arial">retry; nunca ack</text><line x1="51.855" y1="341.487" x2="1623.594" y2="341.487" style="stroke:#829AB1;stroke-width:1;stroke-dasharray:2,2;"/><text x="56.855" y="353.805" fill="#1F2937" font-size="11" textLength="88.016" font-weight="700" font-family="Arial">[lease adquirido]</text><polygon points="292.91,376.085,282.91,380.085,292.91,384.085,288.91,380.085" fill="#52606D" style="stroke:#52606D;stroke-width:1;stroke-linejoin:miter;stroke-miterlimit:10;"/><line x1="286.91" y1="380.085" x2="538.701" y2="380.085" style="stroke:#52606D;stroke-width:1;stroke-dasharray:2,2;"/><text x="298.91" y="375.33" fill="#1F2937" font-size="13" textLength="44.795" font-family="Arial">claimed</text><polygon points="751.855,405.034,761.855,409.034,751.855,413.034,755.855,409.034" fill="#52606D" style="stroke:#52606D;stroke-width:1;stroke-linejoin:miter;stroke-miterlimit:10;"/><line x1="281.91" y1="409.034" x2="757.855" y2="409.034" style="stroke:#52606D;stroke-width:1;"/><text x="288.91" y="404.279" fill="#1F2937" font-size="13" textLength="98.992" font-family="Arial">reconcile attempt</text><polygon points="952.167,433.982,962.167,437.982,952.167,441.982,956.167,437.982" fill="#52606D" style="stroke:#52606D;stroke-width:1;stroke-linejoin:miter;stroke-miterlimit:10;"/><line x1="763.855" y1="437.982" x2="958.167" y2="437.982" style="stroke:#52606D;stroke-width:1;"/><text x="770.855" y="433.228" fill="#1F2937" font-size="13" textLength="176.313" font-family="Arial">recibo + confirmaciones + logs</text><polygon points="774.855,462.931,764.855,466.931,774.855,470.931,770.855,466.931" fill="#52606D" style="stroke:#52606D;stroke-width:1;stroke-linejoin:miter;stroke-miterlimit:10;"/><line x1="768.855" y1="466.931" x2="963.167" y2="466.931" style="stroke:#52606D;stroke-width:1;stroke-dasharray:2,2;"/><text x="780.855" y="462.176" fill="#1F2937" font-size="13" textLength="110.576" font-family="Arial">evidencia canónica</text><path d="M530.701,478.931 L583.872,478.931 L583.872,485.88 L573.872,495.88 L523.701,495.88 L523.701,485.931 A7,7 0 0 1 530.701,478.931" style="stroke:#829AB1;stroke-width:1.5;" fill="#F8FAFC"/><rect x="523.701" y="478.931" width="1074.894" height="277.188" fill="none" style="stroke:#829AB1;stroke-width:1.5;" rx="7" ry="7"/><text x="538.701" y="492.125" fill="#1F2937" font-size="13" textLength="15.171" font-weight="700" font-family="Arial">alt</text><text x="598.872" y="491.249" fill="#1F2937" font-size="11" textLength="61.725" font-weight="700" font-family="Arial">[pago local]</text><polygon points="550.701,522.829,540.701,526.829,550.701,530.829,546.701,526.829" fill="#52606D" style="stroke:#52606D;stroke-width:1;stroke-linejoin:miter;stroke-miterlimit:10;"/><line x1="544.701" y1="526.829" x2="762.855" y2="526.829" style="stroke:#52606D;stroke-width:1;"/><text x="556.701" y="522.074" fill="#1F2937" font-size="13" textLength="148.884" font-family="Arial">fee evidence idempotente</text><line x1="523.701" y1="535.829" x2="1598.594" y2="535.829" style="stroke:#829AB1;stroke-width:1;stroke-dasharray:2,2;"/><text x="528.701" y="548.146" fill="#1F2937" font-size="11" textLength="66.602" font-weight="700" font-family="Arial">[pago CCTP]</text><polygon points="1054.743,570.426,1064.743,574.426,1054.743,578.426,1058.743,574.426" fill="#52606D" style="stroke:#52606D;stroke-width:1;stroke-linejoin:miter;stroke-miterlimit:10;"/><line x1="763.855" y1="574.426" x2="1060.743" y2="574.426" style="stroke:#52606D;stroke-width:1;"/><text x="770.855" y="569.671" fill="#1F2937" font-size="13" textLength="156.076" font-family="Arial">GET attestation por burn tx</text><polygon points="774.855,599.375,764.855,603.375,774.855,607.375,770.855,603.375" fill="#52606D" style="stroke:#52606D;stroke-width:1;stroke-linejoin:miter;stroke-miterlimit:10;"/><line x1="768.855" y1="603.375" x2="1065.743" y2="603.375" style="stroke:#52606D;stroke-width:1;stroke-dasharray:2,2;"/><text x="780.855" y="598.62" fill="#1F2937" font-size="13" textLength="127.55" font-family="Arial">message + attestation</text><polygon points="550.701,628.324,540.701,632.324,550.701,636.324,546.701,632.324" fill="#52606D" style="stroke:#52606D;stroke-width:1;stroke-linejoin:miter;stroke-miterlimit:10;"/><line x1="544.701" y1="632.324" x2="762.855" y2="632.324" style="stroke:#52606D;stroke-width:1;"/><text x="556.701" y="627.569" fill="#1F2937" font-size="13" textLength="178.502" font-family="Arial">valida mensaje y fee ejecutada</text><polygon points="1178.326,657.272,1188.326,661.272,1178.326,665.272,1182.326,661.272" fill="#52606D" style="stroke:#52606D;stroke-width:1;stroke-linejoin:miter;stroke-miterlimit:10;"/><line x1="763.855" y1="661.272" x2="1184.326" y2="661.272" style="stroke:#52606D;stroke-width:1;"/><text x="770.855" y="656.518" fill="#1F2937" font-size="13" textLength="135.84" font-family="Arial">solicitar mint en destino</text><polygon points="1425.598,686.221,1435.598,690.221,1425.598,694.221,1429.598,690.221" fill="#52606D" style="stroke:#52606D;stroke-width:1;stroke-linejoin:miter;stroke-miterlimit:10;"/><line x1="1190.326" y1="690.221" x2="1431.598" y2="690.221" style="stroke:#52606D;stroke-width:1;"/><text x="1197.326" y="685.466" fill="#1F2937" font-size="13" textLength="223.272" font-family="Arial">receiveMessage(message, attestation)</text><polygon points="1570.594,715.17,1580.594,719.17,1570.594,723.17,1574.594,719.17" fill="#52606D" style="stroke:#52606D;stroke-width:1;stroke-linejoin:miter;stroke-miterlimit:10;"/><line x1="1437.598" y1="719.17" x2="1576.594" y2="719.17" style="stroke:#52606D;stroke-width:1;"/><text x="1444.598" y="714.415" fill="#1F2937" font-size="13" textLength="65.006" font-family="Arial">mint USDC</text><polygon points="1201.326,744.119,1191.326,748.119,1201.326,752.119,1197.326,748.119" fill="#52606D" style="stroke:#52606D;stroke-width:1;stroke-linejoin:miter;stroke-miterlimit:10;"/><line x1="1195.326" y1="748.119" x2="1436.598" y2="748.119" style="stroke:#52606D;stroke-width:1;stroke-dasharray:2,2;"/><text x="1207.326" y="743.364" fill="#1F2937" font-size="13" textLength="106.939" font-family="Arial">receipt confirmado</text><polygon points="550.701,816.965,540.701,820.965,550.701,824.965,546.701,820.965" fill="#52606D" style="stroke:#52606D;stroke-width:1;stroke-linejoin:miter;stroke-miterlimit:10;"/><line x1="544.701" y1="820.965" x2="762.855" y2="820.965" style="stroke:#52606D;stroke-width:1;"/><text x="556.701" y="786.313" fill="#1F2937" font-size="13" textLength="200.154" font-family="Arial">batch económico atómico por CAS</text><text x="556.701" y="801.261" fill="#1F2937" font-size="13" textLength="124.293" font-family="Arial">attempt + intent + link</text><text x="556.701" y="816.21" fill="#1F2937" font-size="13" textLength="196.581" font-family="Arial">+ payment.paid/overpaid + outbox</text><polygon points="751.855,845.914,761.855,849.914,751.855,853.914,755.855,849.914" fill="#52606D" style="stroke:#52606D;stroke-width:1;stroke-linejoin:miter;stroke-miterlimit:10;"/><line x1="539.701" y1="849.914" x2="757.855" y2="849.914" style="stroke:#52606D;stroke-width:1;stroke-dasharray:2,2;"/><text x="546.701" y="845.159" fill="#1F2937" font-size="13" textLength="134.418" font-family="Arial">aplicado o replay inerte</text><polygon points="292.91,874.862,282.91,878.862,292.91,882.862,288.91,878.862" fill="#52606D" style="stroke:#52606D;stroke-width:1;stroke-linejoin:miter;stroke-miterlimit:10;"/><line x1="286.91" y1="878.862" x2="762.855" y2="878.862" style="stroke:#52606D;stroke-width:1;stroke-dasharray:2,2;"/><text x="298.91" y="874.107" fill="#1F2937" font-size="13" textLength="110.57" font-family="Arial">trabajo completado</text><polygon points="527.701,903.811,537.701,907.811,527.701,911.811,531.701,907.811" fill="#52606D" style="stroke:#52606D;stroke-width:1;stroke-linejoin:miter;stroke-miterlimit:10;"/><line x1="281.91" y1="907.811" x2="533.701" y2="907.811" style="stroke:#52606D;stroke-width:1;"/><text x="288.91" y="903.056" fill="#1F2937" font-size="13" textLength="233.791" font-family="Arial">batch job completed + outbox completed</text><polygon points="78.855,932.76,68.855,936.76,78.855,940.76,74.855,936.76" fill="#52606D" style="stroke:#52606D;stroke-width:1;stroke-linejoin:miter;stroke-miterlimit:10;"/><line x1="72.855" y1="936.76" x2="280.91" y2="936.76" style="stroke:#52606D;stroke-width:1;"/><text x="84.855" y="932.005" fill="#1F2937" font-size="13" textLength="20.23" font-family="Arial">ack</text><polygon points="269.91,975.708,279.91,979.708,269.91,983.708,273.91,979.708" fill="#52606D" style="stroke:#52606D;stroke-width:1;stroke-linejoin:miter;stroke-miterlimit:10;"/><line x1="67.855" y1="979.708" x2="275.91" y2="979.708" style="stroke:#52606D;stroke-width:1;"/><text x="74.855" y="974.954" fill="#1F2937" font-size="13" textLength="104.063" font-family="Arial">webhook_delivery</text><polygon points="527.701,1004.657,537.701,1008.657,527.701,1012.657,531.701,1008.657" fill="#52606D" style="stroke:#52606D;stroke-width:1;stroke-linejoin:miter;stroke-miterlimit:10;"/><line x1="281.91" y1="1008.657" x2="533.701" y2="1008.657" style="stroke:#52606D;stroke-width:1;"/><text x="288.91" y="1003.902" fill="#1F2937" font-size="13" textLength="124.636" font-family="Arial">claim delivery + lease</text><polygon points="1710.169,1033.606,1720.169,1037.606,1710.169,1041.606,1714.169,1037.606" fill="#52606D" style="stroke:#52606D;stroke-width:1;stroke-linejoin:miter;stroke-miterlimit:10;"/><line x1="281.91" y1="1037.606" x2="1716.169" y2="1037.606" style="stroke:#52606D;stroke-width:1;"/><text x="288.91" y="1032.851" fill="#1F2937" font-size="13" textLength="195.063" font-family="Arial">POST body + HMAC + timestamp</text><path d="M58.855,1049.606 L112.026,1049.606 L112.026,1056.555 L102.026,1066.555 L51.855,1066.555 L51.855,1056.606 A7,7 0 0 1 58.855,1049.606" style="stroke:#829AB1;stroke-width:1.5;" fill="#F8FAFC"/><rect x="51.855" y="1049.606" width="1686.314" height="219.29" fill="none" style="stroke:#829AB1;stroke-width:1.5;" rx="7" ry="7"/><text x="66.855" y="1062.8" fill="#1F2937" font-size="13" textLength="15.171" font-weight="700" font-family="Arial">alt</text><text x="127.026" y="1061.924" fill="#1F2937" font-size="11" textLength="57.455" font-weight="700" font-family="Arial">[HTTP 2xx]</text><polygon points="292.91,1093.503,282.91,1097.503,292.91,1101.503,288.91,1097.503" fill="#52606D" style="stroke:#52606D;stroke-width:1;stroke-linejoin:miter;stroke-miterlimit:10;"/><line x1="286.91" y1="1097.503" x2="1721.169" y2="1097.503" style="stroke:#52606D;stroke-width:1;stroke-dasharray:2,2;"/><text x="298.91" y="1092.749" fill="#1F2937" font-size="13" textLength="53.492" font-family="Arial">aceptado</text><polygon points="527.701,1122.452,537.701,1126.452,527.701,1130.452,531.701,1126.452" fill="#52606D" style="stroke:#52606D;stroke-width:1;stroke-linejoin:miter;stroke-miterlimit:10;"/><line x1="281.91" y1="1126.452" x2="533.701" y2="1126.452" style="stroke:#52606D;stroke-width:1;"/><text x="288.91" y="1121.697" fill="#1F2937" font-size="13" textLength="52.755" font-family="Arial">delivered</text><polygon points="78.855,1151.401,68.855,1155.401,78.855,1159.401,74.855,1155.401" fill="#52606D" style="stroke:#52606D;stroke-width:1;stroke-linejoin:miter;stroke-miterlimit:10;"/><line x1="72.855" y1="1155.401" x2="280.91" y2="1155.401" style="stroke:#52606D;stroke-width:1;"/><text x="84.855" y="1150.646" fill="#1F2937" font-size="13" textLength="20.23" font-family="Arial">ack</text><line x1="51.855" y1="1164.401" x2="1738.169" y2="1164.401" style="stroke:#829AB1;stroke-width:1;stroke-dasharray:2,2;"/><text x="56.855" y="1176.719" fill="#1F2937" font-size="11" textLength="120.393" font-weight="700" font-family="Arial">[red / HTTP no exitoso]</text><polygon points="292.91,1198.999,282.91,1202.999,292.91,1206.999,288.91,1202.999" fill="#52606D" style="stroke:#52606D;stroke-width:1;stroke-linejoin:miter;stroke-miterlimit:10;"/><line x1="286.91" y1="1202.999" x2="1721.169" y2="1202.999" style="stroke:#52606D;stroke-width:1;stroke-dasharray:2,2;"/><text x="298.91" y="1198.244" fill="#1F2937" font-size="13" textLength="27.447" font-family="Arial">error</text><polygon points="527.701,1227.947,537.701,1231.947,527.701,1235.947,531.701,1231.947" fill="#52606D" style="stroke:#52606D;stroke-width:1;stroke-linejoin:miter;stroke-miterlimit:10;"/><line x1="281.91" y1="1231.947" x2="533.701" y2="1231.947" style="stroke:#52606D;stroke-width:1;"/><text x="288.91" y="1227.192" fill="#1F2937" font-size="13" textLength="120.339" font-family="Arial">failed/dead + backoff</text><polygon points="78.855,1256.896,68.855,1260.896,78.855,1264.896,74.855,1260.896" fill="#52606D" style="stroke:#52606D;stroke-width:1;stroke-linejoin:miter;stroke-miterlimit:10;"/><line x1="72.855" y1="1260.896" x2="280.91" y2="1260.896" style="stroke:#52606D;stroke-width:1;"/><text x="84.855" y="1256.141" fill="#1F2937" font-size="13" textLength="67.184" font-family="Arial">retry o DLQ</text><path d="M1011.648,1294.896 L1011.648,1319.896 A7,7 0 0 0 1018.648,1326.896 L1485.648,1326.896 A7,7 0 0 0 1492.648,1319.896 L1492.648,1297.896 L1482.648,1287.896 L1018.648,1287.896 A7,7 0 0 0 1011.648,1294.896" style="stroke:#B7791F;stroke-width:0.5;" fill="#FFFBEB"/><path d="M1482.648,1287.896 L1482.648,1294.396 A3.5,3.5 0 0 0 1486.148,1297.896 L1492.648,1297.896 L1482.648,1287.896" style="stroke:#B7791F;stroke-width:0.5;" fill="#FFFBEB"/><text x="1071" y="1305.09" fill="#1F2937" font-size="13" textLength="313.612" font-family="Arial">Iris entrega la attestation. No ejecuta receiveMessage:</text><text x="1071" y="1320.039" fill="#1F2937" font-size="13" textLength="353.342" font-family="Arial">esa llamada ocurre on-chain en MessageTransmitter destino.</text><?plantuml-src XLN1RXit4BtlLqnzQk7O1d9qWGAk73GfwbIDL1G530Ypv4YclKjkIAvYtV8H_OsUyWd-atv97xcxrcgjj1VBIxwPUJDlPlYDiQfgjT0gtaajvqrRLqKqiH9QY6h5AiFqp-U_w8CeXu_AiASW4O1QRAGTuQ-N3Ku_INddt4DHV6ob5JgPyov10ltiod1272XV50txQ9Hf6EOdkACFhOscbWov1xRG7Bdaa7nS_NdpvlroiRh-CL_hyj1yO2K-N_ldpmbiFYFdpKPiXWNNUYKhtwX3sCnuXSJVUHFeQlukOmq-fZ4htecd8Ry-SZuyHDv82BoHfMSRQXEZ-5ih5bXDMa8qrcNRkBy_jF-3gqeYi1LPsJXbEdmjNjq1iFgKxoSsdGgGHJVEs9Wj9jAS_P3hJ9U3U4CkKAFdJDlNHSO0gqiWLSMc1XNTDa8FigDJgWGQ5Lp5b479zuvsJChL3KYnTWKboxDziFvAD6u6tnsXIsBrK4W5oRDJYaxpzkblfcqIBSeBNnccGIB8fhNQ9GL2H0Ka7F7k9VhTzsHRgtWQYlN75Y8VuvjIFc2xxw_ijFyWXdHr4m4S0G3Vzra7DwK3Oo3MnjSCEQs4L4UtIQH7wBDfBDaQtSsYOllqnHh51KnIxHlUEBXGNE5WoY1BjnOP70ZXfsvSx8kQwv0zp6RB-H47gVtXugStovmbIXn1cnhdgMozfVYOZJBi1UkwxwNJiUtNM6wvCffXOmFV2nPBfdsF9OHcuYDM_SZ1DBWA_H-nWsfqF9fw6A_UgiF1P3HfdI9Yjj9t_BSzsrTZijzb3sCpU9dCNqeqXVrzSJrx2JyWcYCsyRa5SjDXKelYQ4bAZkgEqldJbzee1sRzFwd-iwl5hUrR3oK6XRIGqKx6FjpQKyYQP_gyOQClt5Py-WVthesbUznt-u5atA2Ku4KEvmrumw_ut2jZWliX6KR_OEuFDaUN1Oxs2-2PnV_lX5ISwTRgrzaAYn7w-TtnJTNTFU-f0TCR0pZ_TR6aqkc4UNjpDSDFUeSWVTtajVPskPpJwyTKgy5gb3ahQOxbsqV-xpMNte2BBe1r98yckk2Enn7ldPy6MJE4q1TQE1MpX5-tNdzjyq7Cwrz-wsffCVkKkY7FxAlnsqFTopUy2HMF9-6SthjX72UJSvcQEC2WOhGqarEjzmXYpp0cngPvVFaI3YDwdcXHObNy2m00?></g></svg>