<svg xmlns="http://www.w3.org/2000/svg" xmlns:xlink="http://www.w3.org/1999/xlink" version="1.1" data-diagram-type="SEQUENCE" style="width:1457px;height:1936px;background:#FCFCFD;" width="1457px" height="1936px" viewBox="0 0 1457 1936" zoomAndPan="magnify" preserveAspectRatio="none" contentStyleType="text/css"><?plantuml 1.2026.7?><defs/><g font-family="sans-serif" lengthAdjust="spacing"><rect x="0" y="0" width="1457" height="1936" fill="#FCFCFD" style="stroke:none;"/><g class="title" data-source-line="2"><text x="507.237" y="28.132" fill="#1F2937" font-size="14" textLength="441.185" font-weight="700" font-family="Arial">Secuencia operativa — reemplazo semántico del corte de Fase 2.1</text></g><rect x="26.572" y="137.296" width="1309.779" height="418.231" fill="#F8FAFC" style="stroke:#F8FAFC;stroke-width:1;" rx="7" ry="7"/><rect x="26.572" y="137.296" width="1309.779" height="418.231" fill="none" style="stroke:#829AB1;stroke-width:1.5;" rx="7" ry="7"/><rect x="26.572" y="573.527" width="1309.779" height="575.975" fill="#F8FAFC" style="stroke:#F8FAFC;stroke-width:1;" rx="7" ry="7"/><rect x="26.572" y="573.527" width="1309.779" height="575.975" fill="none" style="stroke:#829AB1;stroke-width:1.5;" rx="7" ry="7"/><rect x="26.572" y="1167.501" width="1409.245" height="461.18" fill="#F8FAFC" style="stroke:#F8FAFC;stroke-width:1;" rx="7" ry="7"/><rect x="26.572" y="1167.501" width="1409.245" height="461.18" fill="none" style="stroke:#829AB1;stroke-width:1.5;" rx="7" ry="7"/><g><title>Operador</title><rect x="39.072" y="125.296" width="8" height="1721.924" fill="#000" fill-opacity="0"/><line x1="42.572" y1="125.296" x2="42.572" y2="1847.22" style="stroke:#9FB3C8;stroke-width:0.5;stroke-dasharray:5,5;"/></g><g><title>Preflight read-only</title><rect x="271.91" y="125.296" width="8" height="1721.924" fill="#000" fill-opacity="0"/><line x1="275.41" y1="125.296" x2="275.41" y2="1847.22" style="stroke:#9FB3C8;stroke-width:0.5;stroke-dasharray:5,5;"/></g><g><title>Cloudflare</title><rect x="470.007" y="125.296" width="8" height="1721.924" fill="#000" fill-opacity="0"/><line x1="473.507" y1="125.296" x2="473.507" y2="1847.22" style="stroke:#9FB3C8;stroke-width:0.5;stroke-dasharray:5,5;"/></g><g><title>App Worker</title><rect x="562.869" y="125.296" width="8" height="1721.924" fill="#000" fill-opacity="0"/><line x1="566.369" y1="125.296" x2="566.369" y2="1847.22" style="stroke:#9FB3C8;stroke-width:0.5;stroke-dasharray:5,5;"/></g><g><title>App DB</title><rect x="643.948" y="125.296" width="8" height="1721.924" fill="#000" fill-opacity="0"/><line x1="647.448" y1="125.296" x2="647.448" y2="1847.22" style="stroke:#9FB3C8;stroke-width:0.5;stroke-dasharray:5,5;"/></g><g><title>Split tool local</title><rect x="731.262" y="125.296" width="8" height="1721.924" fill="#000" fill-opacity="0"/><line x1="734.762" y1="125.296" x2="734.762" y2="1847.22" style="stroke:#9FB3C8;stroke-width:0.5;stroke-dasharray:5,5;"/></g><g><title>Payments DB hist.rica</title><rect x="1005.408" y="125.296" width="8" height="1721.924" fill="#000" fill-opacity="0"/><line x1="1008.908" y1="125.296" x2="1008.908" y2="1847.22" style="stroke:#9FB3C8;stroke-width:0.5;stroke-dasharray:5,5;"/></g><g><title>Payments DB nueva</title><rect x="1177.417" y="125.296" width="8" height="1721.924" fill="#000" fill-opacity="0"/><line x1="1180.917" y1="125.296" x2="1180.917" y2="1847.22" style="stroke:#9FB3C8;stroke-width:0.5;stroke-dasharray:5,5;"/></g><g><title>Payments Worker</title><rect x="1316.852" y="125.296" width="8" height="1721.924" fill="#000" fill-opacity="0"/><line x1="1320.352" y1="125.296" x2="1320.352" y2="1847.22" style="stroke:#9FB3C8;stroke-width:0.5;stroke-dasharray:5,5;"/></g><g><title>Vercel</title><rect x="1416.317" y="125.296" width="8" height="1721.924" fill="#000" fill-opacity="0"/><line x1="1419.817" y1="125.296" x2="1419.817" y2="1847.22" style="stroke:#9FB3C8;stroke-width:0.5;stroke-dasharray:5,5;"/></g><text x="10" y="122.329" fill="#243B53" font-size="14" textLength="59.145" font-family="Arial">Operador</text><ellipse cx="42.572" cy="57.697" rx="8" ry="8" fill="#E2E2F0" style="stroke:#334E68;stroke-width:0.5;"/><path d="M42.572,65.697 L42.572,92.697 M29.572,73.697 L55.572,73.697 M42.572,92.697 L29.572,107.697 M42.572,92.697 L55.572,107.697" style="stroke:#334E68;stroke-width:0.5;" fill="none"/><rect x="211.604" y="94.197" width="127.613" height="30.099" fill="#FFF" style="stroke:#627D98;stroke-width:0.5;" rx="7" ry="7"/><text x="218.604" y="114.329" fill="#1F2937" font-size="14" textLength="113.613" font-family="Arial">Preflight read-only</text><rect x="434.601" y="94.197" width="77.813" height="30.099" fill="#FFF" style="stroke:#627D98;stroke-width:0.5;" rx="7" ry="7"/><text x="441.601" y="114.329" fill="#1F2937" font-size="14" textLength="63.813" font-family="Arial">Cloudflare</text><rect x="522.414" y="94.197" width="87.91" height="30.099" fill="#FFF" style="stroke:#627D98;stroke-width:0.5;" rx="7" ry="7"/><text x="529.414" y="114.329" fill="#1F2937" font-size="14" textLength="73.91" font-family="Arial">App Worker</text><text x="620.324" y="122.329" fill="#1F2937" font-size="14" textLength="48.248" font-family="Arial">App DB</text><path d="M629.448,73.197 C629.448,63.197 647.448,63.197 647.448,63.197 C647.448,63.197 665.448,63.197 665.448,73.197 L665.448,99.197 C665.448,109.197 647.448,109.197 647.448,109.197 C647.448,109.197 629.448,109.197 629.448,99.197 L629.448,73.197" style="stroke:#627D98;stroke-width:0.5;" fill="#FFF"/><path d="M629.448,73.197 C629.448,83.197 647.448,83.197 647.448,83.197 C647.448,83.197 665.448,83.197 665.448,73.197" style="stroke:#627D98;stroke-width:0.5;" fill="none"/><rect x="684.572" y="94.197" width="100.379" height="30.099" fill="#FFF" style="stroke:#627D98;stroke-width:0.5;" rx="7" ry="7"/><text x="691.572" y="114.329" fill="#1F2937" font-size="14" textLength="86.379" font-family="Arial">Split tool local</text><text x="935.104" y="106.23" fill="#1F2937" font-size="14" textLength="141.606" font-family="Arial">Payments DB histórica</text><text x="913.708" y="122.329" fill="#1F2937" font-size="14" textLength="184.399" font-family="Arial">[checksum de IDs; conservar]</text><path d="M990.908,57.099 C990.908,47.099 1008.908,47.099 1008.908,47.099 C1008.908,47.099 1026.908,47.099 1026.908,57.099 L1026.908,83.099 C1026.908,93.099 1008.908,93.099 1008.908,93.099 C1008.908,93.099 990.908,93.099 990.908,83.099 L990.908,57.099" style="stroke:#627D98;stroke-width:0.5;" fill="#FFF"/><path d="M990.908,57.099 C990.908,67.099 1008.908,67.099 1008.908,67.099 C1008.908,67.099 1026.908,67.099 1026.908,57.099" style="stroke:#627D98;stroke-width:0.5;" fill="none"/><text x="1114.107" y="106.23" fill="#1F2937" font-size="14" textLength="127.62" font-family="Arial">Payments DB nueva</text><text x="1157.297" y="122.329" fill="#1F2937" font-size="14" textLength="41.241" font-family="Arial">[vacía]</text><path d="M1162.917,57.099 C1162.917,47.099 1180.917,47.099 1180.917,47.099 C1180.917,47.099 1198.917,47.099 1198.917,57.099 L1198.917,83.099 C1198.917,93.099 1180.917,93.099 1180.917,93.099 C1180.917,93.099 1162.917,93.099 1162.917,83.099 L1162.917,57.099" style="stroke:#627D98;stroke-width:0.5;" fill="#FFF"/><path d="M1162.917,57.099 C1162.917,67.099 1180.917,67.099 1180.917,67.099 C1180.917,67.099 1198.917,67.099 1198.917,57.099" style="stroke:#627D98;stroke-width:0.5;" fill="none"/><rect x="1257.728" y="94.197" width="125.248" height="30.099" fill="#FFF" style="stroke:#627D98;stroke-width:0.5;" rx="7" ry="7"/><text x="1264.728" y="114.329" fill="#1F2937" font-size="14" textLength="111.248" font-family="Arial">Payments Worker</text><rect x="1392.976" y="94.197" width="53.683" height="30.099" fill="#FFF" style="stroke:#627D98;stroke-width:0.5;" rx="7" ry="7"/><text x="1399.976" y="114.329" fill="#1F2937" font-size="14" textLength="39.683" font-family="Arial">Vercel</text><text x="10" y="1860.352" fill="#243B53" font-size="14" textLength="59.145" font-family="Arial">Operador</text><ellipse cx="42.572" cy="1871.818" rx="8" ry="8" fill="#E2E2F0" style="stroke:#334E68;stroke-width:0.5;"/><path d="M42.572,1879.818 L42.572,1906.818 M29.572,1887.818 L55.572,1887.818 M42.572,1906.818 L29.572,1921.818 M42.572,1906.818 L55.572,1921.818" style="stroke:#334E68;stroke-width:0.5;" fill="none"/><rect x="211.604" y="1847.22" width="127.613" height="30.099" fill="#FFF" style="stroke:#627D98;stroke-width:0.5;" rx="7" ry="7"/><text x="218.604" y="1867.352" fill="#1F2937" font-size="14" textLength="113.613" font-family="Arial">Preflight read-only</text><rect x="434.601" y="1847.22" width="77.813" height="30.099" fill="#FFF" style="stroke:#627D98;stroke-width:0.5;" rx="7" ry="7"/><text x="441.601" y="1867.352" fill="#1F2937" font-size="14" textLength="63.813" font-family="Arial">Cloudflare</text><rect x="522.414" y="1847.22" width="87.91" height="30.099" fill="#FFF" style="stroke:#627D98;stroke-width:0.5;" rx="7" ry="7"/><text x="529.414" y="1867.352" fill="#1F2937" font-size="14" textLength="73.91" font-family="Arial">App Worker</text><text x="620.324" y="1860.352" fill="#1F2937" font-size="14" textLength="48.248" font-family="Arial">App DB</text><path d="M629.448,1873.318 C629.448,1863.318 647.448,1863.318 647.448,1863.318 C647.448,1863.318 665.448,1863.318 665.448,1873.318 L665.448,1899.318 C665.448,1909.318 647.448,1909.318 647.448,1909.318 C647.448,1909.318 629.448,1909.318 629.448,1899.318 L629.448,1873.318" style="stroke:#627D98;stroke-width:0.5;" fill="#FFF"/><path d="M629.448,1873.318 C629.448,1883.318 647.448,1883.318 647.448,1883.318 C647.448,1883.318 665.448,1883.318 665.448,1873.318" style="stroke:#627D98;stroke-width:0.5;" fill="none"/><rect x="684.572" y="1847.22" width="100.379" height="30.099" fill="#FFF" style="stroke:#627D98;stroke-width:0.5;" rx="7" ry="7"/><text x="691.572" y="1867.352" fill="#1F2937" font-size="14" textLength="86.379" font-family="Arial">Split tool local</text><text x="935.104" y="1860.352" fill="#1F2937" font-size="14" textLength="141.606" font-family="Arial">Payments DB histórica</text><text x="913.708" y="1876.45" fill="#1F2937" font-size="14" textLength="184.399" font-family="Arial">[checksum de IDs; conservar]</text><path d="M990.908,1889.417 C990.908,1879.417 1008.908,1879.417 1008.908,1879.417 C1008.908,1879.417 1026.908,1879.417 1026.908,1889.417 L1026.908,1915.417 C1026.908,1925.417 1008.908,1925.417 1008.908,1925.417 C1008.908,1925.417 990.908,1925.417 990.908,1915.417 L990.908,1889.417" style="stroke:#627D98;stroke-width:0.5;" fill="#FFF"/><path d="M990.908,1889.417 C990.908,1899.417 1008.908,1899.417 1008.908,1899.417 C1008.908,1899.417 1026.908,1899.417 1026.908,1889.417" style="stroke:#627D98;stroke-width:0.5;" fill="none"/><text x="1114.107" y="1860.352" fill="#1F2937" font-size="14" textLength="127.62" font-family="Arial">Payments DB nueva</text><text x="1157.297" y="1876.45" fill="#1F2937" font-size="14" textLength="41.241" font-family="Arial">[vacía]</text><path d="M1162.917,1889.417 C1162.917,1879.417 1180.917,1879.417 1180.917,1879.417 C1180.917,1879.417 1198.917,1879.417 1198.917,1889.417 L1198.917,1915.417 C1198.917,1925.417 1180.917,1925.417 1180.917,1925.417 C1180.917,1925.417 1162.917,1925.417 1162.917,1915.417 L1162.917,1889.417" style="stroke:#627D98;stroke-width:0.5;" fill="#FFF"/><path d="M1162.917,1889.417 C1162.917,1899.417 1180.917,1899.417 1180.917,1899.417 C1180.917,1899.417 1198.917,1899.417 1198.917,1889.417" style="stroke:#627D98;stroke-width:0.5;" fill="none"/><rect x="1257.728" y="1847.22" width="125.248" height="30.099" fill="#FFF" style="stroke:#627D98;stroke-width:0.5;" rx="7" ry="7"/><text x="1264.728" y="1867.352" fill="#1F2937" font-size="14" textLength="111.248" font-family="Arial">Payments Worker</text><rect x="1392.976" y="1847.22" width="53.683" height="30.099" fill="#FFF" style="stroke:#627D98;stroke-width:0.5;" rx="7" ry="7"/><text x="1399.976" y="1867.352" fill="#1F2937" font-size="14" textLength="39.683" font-family="Arial">Vercel</text><path d="M33.572,137.296 L211.76,137.296 L211.76,144.245 L201.76,154.245 L26.572,154.245 L26.572,144.296 A7,7 0 0 1 33.572,137.296" style="stroke:#829AB1;stroke-width:1.5;" fill="#F8FAFC"/><rect x="26.572" y="137.296" width="1309.779" height="418.231" fill="none" style="stroke:#829AB1;stroke-width:1.5;" rx="7" ry="7"/><text x="41.572" y="150.49" fill="#1F2937" font-size="13" textLength="140.188" font-weight="700" font-family="Arial">Preparación reversible</text><polygon points="263.41,181.193,273.41,185.193,263.41,189.193,267.41,185.193" fill="#52606D" style="stroke:#52606D;stroke-width:1;stroke-linejoin:miter;stroke-miterlimit:10;"/><line x1="42.572" y1="185.193" x2="269.41" y2="185.193" style="stroke:#52606D;stroke-width:1;"/><text x="49.572" y="180.438" fill="#1F2937" font-size="13" textLength="208.838" font-family="Arial">inventario, backups y estado remoto</text><polygon points="461.507,210.142,471.507,214.142,461.507,218.142,465.507,214.142" fill="#52606D" style="stroke:#52606D;stroke-width:1;stroke-linejoin:miter;stroke-miterlimit:10;"/><line x1="275.41" y1="214.142" x2="467.507" y2="214.142" style="stroke:#52606D;stroke-width:1;"/><text x="282.41" y="209.387" fill="#1F2937" font-size="13" textLength="174.097" font-family="Arial">GET/listar recursos y secretos</text><polygon points="635.448,239.091,645.448,243.091,635.448,247.091,639.448,243.091" fill="#52606D" style="stroke:#52606D;stroke-width:1;stroke-linejoin:miter;stroke-miterlimit:10;"/><line x1="275.41" y1="243.091" x2="641.448" y2="243.091" style="stroke:#52606D;stroke-width:1;"/><text x="282.41" y="238.336" fill="#1F2937" font-size="13" textLength="164.715" font-family="Arial">SELECT / PRAGMA / export</text><polygon points="53.572,268.04,43.572,272.04,53.572,276.04,49.572,272.04" fill="#52606D" style="stroke:#52606D;stroke-width:1;stroke-linejoin:miter;stroke-miterlimit:10;"/><line x1="47.572" y1="272.04" x2="274.41" y2="272.04" style="stroke:#52606D;stroke-width:1;stroke-dasharray:2,2;"/><text x="59.572" y="267.285" fill="#1F2937" font-size="13" textLength="197.272" font-family="Arial">faltantes y gates; cero mutaciones</text><polygon points="461.507,311.937,471.507,315.937,461.507,319.937,465.507,315.937" fill="#52606D" style="stroke:#52606D;stroke-width:1;stroke-linejoin:miter;stroke-miterlimit:10;"/><line x1="42.572" y1="315.937" x2="467.507" y2="315.937" style="stroke:#52606D;stroke-width:1;"/><text x="49.572" y="296.233" fill="#1F2937" font-size="13" textLength="150.293" font-family="Arial">crear D1 Payments nueva</text><text x="49.572" y="311.182" fill="#1F2937" font-size="13" textLength="101.15" font-family="Arial">con UUID distinto</text><polygon points="1168.917,340.886,1178.917,344.886,1168.917,348.886,1172.917,344.886" fill="#52606D" style="stroke:#52606D;stroke-width:1;stroke-linejoin:miter;stroke-miterlimit:10;"/><line x1="42.572" y1="344.886" x2="1174.917" y2="344.886" style="stroke:#52606D;stroke-width:1;"/><text x="49.572" y="340.131" fill="#1F2937" font-size="13" textLength="173.405" font-family="Arial">aplicar migraciones Payments</text><polygon points="461.507,369.834,471.507,373.834,461.507,377.834,465.507,373.834" fill="#52606D" style="stroke:#52606D;stroke-width:1;stroke-linejoin:miter;stroke-miterlimit:10;"/><line x1="42.572" y1="373.834" x2="467.507" y2="373.834" style="stroke:#52606D;stroke-width:1;"/><text x="49.572" y="369.08" fill="#1F2937" font-size="13" textLength="145.241" font-family="Arial">cargar secrets dedicados</text><polygon points="461.507,398.783,471.507,402.783,461.507,406.783,465.507,402.783" fill="#52606D" style="stroke:#52606D;stroke-width:1;stroke-linejoin:miter;stroke-miterlimit:10;"/><line x1="42.572" y1="402.783" x2="467.507" y2="402.783" style="stroke:#52606D;stroke-width:1;"/><text x="49.572" y="398.028" fill="#1F2937" font-size="13" textLength="194.397" font-family="Arial">desplegar Payments en bootstrap</text><polygon points="1308.352,427.732,1318.352,431.732,1308.352,435.732,1312.352,431.732" fill="#52606D" style="stroke:#52606D;stroke-width:1;stroke-linejoin:miter;stroke-miterlimit:10;"/><line x1="42.572" y1="431.732" x2="1314.352" y2="431.732" style="stroke:#52606D;stroke-width:1;"/><text x="49.572" y="426.977" fill="#1F2937" font-size="13" textLength="92.485" font-family="Arial">GET /health/live</text><polygon points="53.572,456.681,43.572,460.681,53.572,464.681,49.572,460.681" fill="#52606D" style="stroke:#52606D;stroke-width:1;stroke-linejoin:miter;stroke-miterlimit:10;"/><line x1="47.572" y1="460.681" x2="1319.352" y2="460.681" style="stroke:#52606D;stroke-width:1;stroke-dasharray:2,2;"/><text x="59.572" y="455.926" fill="#1F2937" font-size="13" textLength="264.139" font-family="Arial">bootstrapActive=true; mutaciones bloqueadas</text><polygon points="635.448,485.629,645.448,489.629,635.448,493.629,639.448,489.629" fill="#52606D" style="stroke:#52606D;stroke-width:1;stroke-linejoin:miter;stroke-miterlimit:10;"/><line x1="42.572" y1="489.629" x2="641.448" y2="489.629" style="stroke:#52606D;stroke-width:1;"/><text x="49.572" y="484.875" fill="#1F2937" font-size="13" textLength="213.91" font-family="Arial">aplicar migraciones App 0033 y 0034</text><polygon points="461.507,514.578,471.507,518.578,461.507,522.578,465.507,518.578" fill="#52606D" style="stroke:#52606D;stroke-width:1;stroke-linejoin:miter;stroke-miterlimit:10;"/><line x1="42.572" y1="518.578" x2="467.507" y2="518.578" style="stroke:#52606D;stroke-width:1;"/><text x="49.572" y="513.823" fill="#1F2937" font-size="13" textLength="201.627" font-family="Arial">desplegar App legacy + sync=false</text><polygon points="53.572,543.527,43.572,547.527,53.572,551.527,49.572,547.527" fill="#52606D" style="stroke:#52606D;stroke-width:1;stroke-linejoin:miter;stroke-miterlimit:10;"/><line x1="47.572" y1="547.527" x2="565.369" y2="547.527" style="stroke:#52606D;stroke-width:1;stroke-dasharray:2,2;"/><text x="59.572" y="542.772" fill="#1F2937" font-size="13" textLength="227.265" font-family="Arial">health = legacy; comportamiento previo</text><path d="M33.572,573.527 L113.486,573.527 L113.486,580.476 L103.486,590.476 L26.572,590.476 L26.572,580.527 A7,7 0 0 1 33.572,573.527" style="stroke:#829AB1;stroke-width:1.5;" fill="#F8FAFC"/><rect x="26.572" y="573.527" width="1309.779" height="575.975" fill="none" style="stroke:#829AB1;stroke-width:1.5;" rx="7" ry="7"/><text x="41.572" y="586.721" fill="#1F2937" font-size="13" textLength="41.914" font-weight="700" font-family="Arial">critical</text><text x="128.486" y="585.845" fill="#1F2937" font-size="11" textLength="176.054" font-weight="700" font-family="Arial">[Ventana sin escrituras de pagos]</text><polygon points="461.507,617.424,471.507,621.424,461.507,625.424,465.507,621.424" fill="#52606D" style="stroke:#52606D;stroke-width:1;stroke-linejoin:miter;stroke-miterlimit:10;"/><line x1="42.572" y1="621.424" x2="467.507" y2="621.424" style="stroke:#52606D;stroke-width:1;"/><text x="49.572" y="616.669" fill="#1F2937" font-size="13" textLength="184.285" font-family="Arial">desplegar App con modo frozen</text><polygon points="554.369,646.373,564.369,650.373,554.369,654.373,558.369,650.373" fill="#52606D" style="stroke:#52606D;stroke-width:1;stroke-linejoin:miter;stroke-miterlimit:10;"/><line x1="42.572" y1="650.373" x2="560.369" y2="650.373" style="stroke:#52606D;stroke-width:1;"/><text x="49.572" y="645.618" fill="#1F2937" font-size="13" textLength="133.688" font-family="Arial">probar POST de pagos</text><polygon points="53.572,675.322,43.572,679.322,53.572,683.322,49.572,679.322" fill="#52606D" style="stroke:#52606D;stroke-width:1;stroke-linejoin:miter;stroke-miterlimit:10;"/><line x1="47.572" y1="679.322" x2="565.369" y2="679.322" style="stroke:#52606D;stroke-width:1;stroke-dasharray:2,2;"/><text x="59.572" y="674.567" fill="#1F2937" font-size="13" textLength="99.347" font-family="Arial">503 + Retry-After</text><polygon points="554.369,704.271,564.369,708.271,554.369,712.271,558.369,708.271" fill="#52606D" style="stroke:#52606D;stroke-width:1;stroke-linejoin:miter;stroke-miterlimit:10;"/><line x1="42.572" y1="708.271" x2="560.369" y2="708.271" style="stroke:#52606D;stroke-width:1;"/><text x="49.572" y="703.516" fill="#1F2937" font-size="13" textLength="125.017" font-family="Arial">probar GET de pagos</text><polygon points="53.572,733.219,43.572,737.219,53.572,741.219,49.572,737.219" fill="#52606D" style="stroke:#52606D;stroke-width:1;stroke-linejoin:miter;stroke-miterlimit:10;"/><line x1="47.572" y1="737.219" x2="565.369" y2="737.219" style="stroke:#52606D;stroke-width:1;stroke-dasharray:2,2;"/><text x="59.572" y="732.464" fill="#1F2937" font-size="13" textLength="142.365" font-family="Arial">lectura legacy disponible</text><polygon points="635.448,762.168,645.448,766.168,635.448,770.168,639.448,766.168" fill="#52606D" style="stroke:#52606D;stroke-width:1;stroke-linejoin:miter;stroke-miterlimit:10;"/><line x1="42.572" y1="766.168" x2="641.448" y2="766.168" style="stroke:#52606D;stroke-width:1;"/><text x="49.572" y="761.413" fill="#1F2937" font-size="13" textLength="180.299" font-family="Arial">esperar jobs/outbox activos = 0</text><polygon points="635.448,791.117,645.448,795.117,635.448,799.117,639.448,795.117" fill="#52606D" style="stroke:#52606D;stroke-width:1;stroke-linejoin:miter;stroke-miterlimit:10;"/><line x1="42.572" y1="795.117" x2="641.448" y2="795.117" style="stroke:#52606D;stroke-width:1;"/><text x="49.572" y="790.362" fill="#1F2937" font-size="13" textLength="172.326" font-family="Arial">capturar watermark + conteos</text><polygon points="635.448,820.065,645.448,824.065,635.448,828.065,639.448,824.065" fill="#52606D" style="stroke:#52606D;stroke-width:1;stroke-linejoin:miter;stroke-miterlimit:10;"/><line x1="42.572" y1="824.065" x2="641.448" y2="824.065" style="stroke:#52606D;stroke-width:1;"/><text x="49.572" y="819.311" fill="#1F2937" font-size="13" textLength="123.57" font-family="Arial">export final inmutable</text><polygon points="722.762,849.014,732.762,853.014,722.762,857.014,726.762,853.014" fill="#52606D" style="stroke:#52606D;stroke-width:1;stroke-linejoin:miter;stroke-miterlimit:10;"/><line x1="42.572" y1="853.014" x2="728.762" y2="853.014" style="stroke:#52606D;stroke-width:1;"/><text x="49.572" y="848.259" fill="#1F2937" font-size="13" textLength="167.654" font-family="Arial">separar sólo datos de cobros</text><line x1="734.762" y1="896.912" x2="776.762" y2="896.912" style="stroke:#52606D;stroke-width:1;"/><line x1="776.762" y1="896.912" x2="776.762" y2="909.912" style="stroke:#52606D;stroke-width:1;"/><line x1="735.762" y1="909.912" x2="776.762" y2="909.912" style="stroke:#52606D;stroke-width:1;"/><polygon points="745.762,905.912,735.762,909.912,745.762,913.912,741.762,909.912" fill="#52606D" style="stroke:#52606D;stroke-width:1;stroke-linejoin:miter;stroke-miterlimit:10;"/><text x="741.762" y="877.208" fill="#1F2937" font-size="13" textLength="244.931" font-family="Arial">checksum semántico v2, FK, quick_check,</text><text x="741.762" y="892.157" fill="#1F2937" font-size="13" textLength="260.146" font-family="Arial">tamper/replay; CCTP personal queda en App</text><polygon points="53.572,934.86,43.572,938.86,53.572,942.86,49.572,938.86" fill="#52606D" style="stroke:#52606D;stroke-width:1;stroke-linejoin:miter;stroke-miterlimit:10;"/><line x1="47.572" y1="938.86" x2="733.762" y2="938.86" style="stroke:#52606D;stroke-width:1;stroke-dasharray:2,2;"/><text x="59.572" y="934.105" fill="#1F2937" font-size="13" textLength="164.392" font-family="Arial">data-only SQL + manifest v4</text><polygon points="1168.917,963.809,1178.917,967.809,1168.917,971.809,1172.917,967.809" fill="#52606D" style="stroke:#52606D;stroke-width:1;stroke-linejoin:miter;stroke-miterlimit:10;"/><line x1="42.572" y1="967.809" x2="1174.917" y2="967.809" style="stroke:#52606D;stroke-width:1;"/><text x="49.572" y="963.054" fill="#1F2937" font-size="13" textLength="124.281" font-family="Arial">importar una sola vez</text><polygon points="1168.917,992.758,1178.917,996.758,1168.917,1000.758,1172.917,996.758" fill="#52606D" style="stroke:#52606D;stroke-width:1;stroke-linejoin:miter;stroke-miterlimit:10;"/><line x1="42.572" y1="996.758" x2="1174.917" y2="996.758" style="stroke:#52606D;stroke-width:1;"/><text x="49.572" y="992.003" fill="#1F2937" font-size="13" textLength="145.964" font-family="Arial">exportar target importado</text><polygon points="722.762,1021.707,732.762,1025.707,722.762,1029.707,726.762,1025.707" fill="#52606D" style="stroke:#52606D;stroke-width:1;stroke-linejoin:miter;stroke-miterlimit:10;"/><line x1="42.572" y1="1025.707" x2="728.762" y2="1025.707" style="stroke:#52606D;stroke-width:1;"/><text x="49.572" y="1020.952" fill="#1F2937" font-size="13" textLength="179.524" font-family="Arial">--verify-target-sql + manifest v4</text><polygon points="53.572,1050.655,43.572,1054.655,53.572,1058.655,49.572,1054.655" fill="#52606D" style="stroke:#52606D;stroke-width:1;stroke-linejoin:miter;stroke-miterlimit:10;"/><line x1="47.572" y1="1054.655" x2="733.762" y2="1054.655" style="stroke:#52606D;stroke-width:1;stroke-dasharray:2,2;"/><text x="59.572" y="1049.9" fill="#1F2937" font-size="13" textLength="244.931" font-family="Arial">contenido, IDs, FK y checksum verificados</text><polygon points="461.507,1079.604,471.507,1083.604,461.507,1087.604,465.507,1083.604" fill="#52606D" style="stroke:#52606D;stroke-width:1;stroke-linejoin:miter;stroke-miterlimit:10;"/><line x1="42.572" y1="1083.604" x2="467.507" y2="1083.604" style="stroke:#52606D;stroke-width:1;"/><text x="49.572" y="1078.849" fill="#1F2937" font-size="13" textLength="290.386" font-family="Arial">fijar PAYMENTS_DATA_CUTOVER_CHECKSUM</text><polygon points="1308.352,1108.553,1318.352,1112.553,1308.352,1116.553,1312.352,1112.553" fill="#52606D" style="stroke:#52606D;stroke-width:1;stroke-linejoin:miter;stroke-miterlimit:10;"/><line x1="42.572" y1="1112.553" x2="1314.352" y2="1112.553" style="stroke:#52606D;stroke-width:1;"/><text x="49.572" y="1107.798" fill="#1F2937" font-size="13" textLength="69.367" font-family="Arial">GET /health</text><polygon points="53.572,1137.501,43.572,1141.501,53.572,1145.501,49.572,1141.501" fill="#52606D" style="stroke:#52606D;stroke-width:1;stroke-linejoin:miter;stroke-miterlimit:10;"/><line x1="47.572" y1="1141.501" x2="1319.352" y2="1141.501" style="stroke:#52606D;stroke-width:1;stroke-dasharray:2,2;"/><text x="59.572" y="1136.747" fill="#1F2937" font-size="13" textLength="254.008" font-family="Arial">dataCutover=verified; bootstrap sigue activo</text><path d="M33.572,1167.501 L205.241,1167.501 L205.241,1174.45 L195.241,1184.45 L26.572,1184.45 L26.572,1174.501 A7,7 0 0 1 33.572,1167.501" style="stroke:#829AB1;stroke-width:1.5;" fill="#F8FAFC"/><rect x="26.572" y="1167.501" width="1409.245" height="461.18" fill="none" style="stroke:#829AB1;stroke-width:1.5;" rx="7" ry="7"/><text x="41.572" y="1180.695" fill="#1F2937" font-size="13" textLength="133.669" font-weight="700" font-family="Arial">Activación verificable</text><polygon points="461.507,1211.399,471.507,1215.399,461.507,1219.399,465.507,1215.399" fill="#52606D" style="stroke:#52606D;stroke-width:1;stroke-linejoin:miter;stroke-miterlimit:10;"/><line x1="42.572" y1="1215.399" x2="467.507" y2="1215.399" style="stroke:#52606D;stroke-width:1;"/><text x="49.572" y="1210.644" fill="#1F2937" font-size="13" textLength="224.009" font-family="Arial">desactivar sólo bootstrap de Payments</text><polygon points="1308.352,1240.348,1318.352,1244.348,1308.352,1248.348,1312.352,1244.348" fill="#52606D" style="stroke:#52606D;stroke-width:1;stroke-linejoin:miter;stroke-miterlimit:10;"/><line x1="42.572" y1="1244.348" x2="1314.352" y2="1244.348" style="stroke:#52606D;stroke-width:1;"/><text x="49.572" y="1239.593" fill="#1F2937" font-size="13" textLength="146.694" font-family="Arial">GET /health y /health/ops</text><polygon points="53.572,1269.296,43.572,1273.296,53.572,1277.296,49.572,1273.296" fill="#52606D" style="stroke:#52606D;stroke-width:1;stroke-linejoin:miter;stroke-miterlimit:10;"/><line x1="47.572" y1="1273.296" x2="1319.352" y2="1273.296" style="stroke:#52606D;stroke-width:1;stroke-dasharray:2,2;"/><text x="59.572" y="1268.542" fill="#1F2937" font-size="13" textLength="167.654" font-family="Arial">ready + dataCutover=verified</text><polygon points="1308.352,1298.245,1318.352,1302.245,1308.352,1306.245,1312.352,1302.245" fill="#52606D" style="stroke:#52606D;stroke-width:1;stroke-linejoin:miter;stroke-miterlimit:10;"/><line x1="42.572" y1="1302.245" x2="1314.352" y2="1302.245" style="stroke:#52606D;stroke-width:1;"/><text x="49.572" y="1297.49" fill="#1F2937" font-size="13" textLength="205.213" font-family="Arial">smoke de checkout migrado directo</text><polygon points="53.572,1327.194,43.572,1331.194,53.572,1335.194,49.572,1331.194" fill="#52606D" style="stroke:#52606D;stroke-width:1;stroke-linejoin:miter;stroke-miterlimit:10;"/><line x1="47.572" y1="1331.194" x2="1319.352" y2="1331.194" style="stroke:#52606D;stroke-width:1;stroke-dasharray:2,2;"/><text x="59.572" y="1326.439" fill="#1F2937" font-size="13" textLength="96.808" font-family="Arial">mismo intent/link</text><polygon points="461.507,1356.143,471.507,1360.143,461.507,1364.143,465.507,1360.143" fill="#52606D" style="stroke:#52606D;stroke-width:1;stroke-linejoin:miter;stroke-miterlimit:10;"/><line x1="42.572" y1="1360.143" x2="467.507" y2="1360.143" style="stroke:#52606D;stroke-width:1;"/><text x="49.572" y="1355.388" fill="#1F2937" font-size="13" textLength="235.587" font-family="Arial">App frozen + sync=true; drenar outboxes</text><polygon points="1308.352,1385.091,1318.352,1389.091,1308.352,1393.091,1312.352,1389.091" fill="#52606D" style="stroke:#52606D;stroke-width:1;stroke-linejoin:miter;stroke-miterlimit:10;"/><line x1="566.369" y1="1389.091" x2="1314.352" y2="1389.091" style="stroke:#52606D;stroke-width:1;"/><text x="573.369" y="1384.336" fill="#1F2937" font-size="13" textLength="229.792" font-family="Arial">commands versionados e idempotentes</text><polygon points="461.507,1414.04,471.507,1418.04,461.507,1422.04,465.507,1418.04" fill="#52606D" style="stroke:#52606D;stroke-width:1;stroke-linejoin:miter;stroke-miterlimit:10;"/><line x1="42.572" y1="1418.04" x2="467.507" y2="1418.04" style="stroke:#52606D;stroke-width:1;"/><text x="49.572" y="1413.285" fill="#1F2937" font-size="13" textLength="276.053" font-family="Arial">desplegar App con modo payments + sync=true</text><polygon points="554.369,1442.989,564.369,1446.989,554.369,1450.989,558.369,1446.989" fill="#52606D" style="stroke:#52606D;stroke-width:1;stroke-linejoin:miter;stroke-miterlimit:10;"/><line x1="42.572" y1="1446.989" x2="560.369" y2="1446.989" style="stroke:#52606D;stroke-width:1;"/><text x="49.572" y="1442.234" fill="#1F2937" font-size="13" textLength="171.964" font-family="Arial">smoke por compatibilidad N-1</text><polygon points="1308.352,1471.938,1318.352,1475.938,1308.352,1479.938,1312.352,1475.938" fill="#52606D" style="stroke:#52606D;stroke-width:1;stroke-linejoin:miter;stroke-miterlimit:10;"/><line x1="566.369" y1="1475.938" x2="1314.352" y2="1475.938" style="stroke:#52606D;stroke-width:1;"/><text x="573.369" y="1471.183" fill="#1F2937" font-size="13" textLength="90.327" font-family="Arial">Service Binding</text><polygon points="577.369,1500.886,567.369,1504.886,577.369,1508.886,573.369,1504.886" fill="#52606D" style="stroke:#52606D;stroke-width:1;stroke-linejoin:miter;stroke-miterlimit:10;"/><line x1="571.369" y1="1504.886" x2="1319.352" y2="1504.886" style="stroke:#52606D;stroke-width:1;stroke-dasharray:2,2;"/><text x="583.369" y="1500.131" fill="#1F2937" font-size="13" textLength="95.367" font-family="Arial">mismo resultado</text><polygon points="53.572,1529.835,43.572,1533.835,53.572,1537.835,49.572,1533.835" fill="#52606D" style="stroke:#52606D;stroke-width:1;stroke-linejoin:miter;stroke-miterlimit:10;"/><line x1="47.572" y1="1533.835" x2="565.369" y2="1533.835" style="stroke:#52606D;stroke-width:1;stroke-dasharray:2,2;"/><text x="59.572" y="1529.08" fill="#1F2937" font-size="13" textLength="109.129" font-family="Arial">boundaryVersion 2</text><polygon points="1407.817,1558.784,1417.817,1562.784,1407.817,1566.784,1411.817,1562.784" fill="#52606D" style="stroke:#52606D;stroke-width:1;stroke-linejoin:miter;stroke-miterlimit:10;"/><line x1="42.572" y1="1562.784" x2="1413.817" y2="1562.784" style="stroke:#52606D;stroke-width:1;"/><text x="49.572" y="1558.029" fill="#1F2937" font-size="13" textLength="170.511" font-family="Arial">promover URLs de Payments</text><polygon points="263.41,1587.732,273.41,1591.732,263.41,1595.732,267.41,1591.732" fill="#52606D" style="stroke:#52606D;stroke-width:1;stroke-linejoin:miter;stroke-miterlimit:10;"/><line x1="42.572" y1="1591.732" x2="269.41" y2="1591.732" style="stroke:#52606D;stroke-width:1;"/><text x="49.572" y="1586.978" fill="#1F2937" font-size="13" textLength="130.07" font-family="Arial">repetir gates read-only</text><polygon points="53.572,1616.681,43.572,1620.681,53.572,1624.681,49.572,1620.681" fill="#52606D" style="stroke:#52606D;stroke-width:1;stroke-linejoin:miter;stroke-miterlimit:10;"/><line x1="47.572" y1="1620.681" x2="274.41" y2="1620.681" style="stroke:#52606D;stroke-width:1;stroke-dasharray:2,2;"/><text x="59.572" y="1615.926" fill="#1F2937" font-size="13" textLength="91.038" font-family="Arial">corte verificable</text><path d="M432.738,1654.681 L432.738,1694.681 A7,7 0 0 0 439.738,1701.681 L773.738,1701.681 A7,7 0 0 0 780.738,1694.681 L780.738,1657.681 L770.738,1647.681 L439.738,1647.681 A7,7 0 0 0 432.738,1654.681" style="stroke:#B7791F;stroke-width:0.5;" fill="#FFFBEB"/><path d="M770.738,1647.681 L770.738,1654.181 A3.5,3.5 0 0 0 774.238,1657.681 L780.738,1657.681 L770.738,1647.681" style="stroke:#B7791F;stroke-width:0.5;" fill="#FFFBEB"/><text x="438.738" y="1664.875" fill="#1F2937" font-size="13" textLength="294.087" font-family="Arial">frozen se aplica por prefijo a /links, /checkout, /v1 y</text><text x="438.738" y="1679.824" fill="#1F2937" font-size="13" textLength="299.165" font-family="Arial">/merchant, y dentro de /pay sólo al subflujo de links.</text><text x="438.738" y="1694.772" fill="#1F2937" font-size="13" textLength="327.342" font-family="Arial">/crosschain y las operaciones personales siguen activas.</text><path d="M605.481,1719.527 L605.481,1759.527 A7,7 0 0 0 612.481,1766.527 L1215.481,1766.527 A7,7 0 0 0 1222.481,1759.527 L1222.481,1722.527 L1212.481,1712.527 L612.481,1712.527 A7,7 0 0 0 605.481,1719.527" style="stroke:#B7791F;stroke-width:0.5;" fill="#FFFBEB"/><path d="M1212.481,1712.527 L1212.481,1719.027 A3.5,3.5 0 0 0 1215.981,1722.527 L1222.481,1722.527 L1212.481,1712.527" style="stroke:#B7791F;stroke-width:0.5;" fill="#FFFBEB"/><text x="728.305" y="1729.721" fill="#1F2937" font-size="13" textLength="292.659" font-family="Arial">App conserva las tablas históricas durante el soak.</text><text x="728.305" y="1744.67" fill="#1F2937" font-size="13" textLength="324.422" font-family="Arial">Si Payments ya recibió escrituras nuevas, rollback exige</text><text x="728.305" y="1759.619" fill="#1F2937" font-size="13" textLength="362.756" font-family="Arial">congelar y reconciliar; nunca se fusionan D1 automáticamente.</text><path d="M930.863,1784.374 L930.863,1824.374 A7,7 0 0 0 937.863,1831.374 L1251.863,1831.374 A7,7 0 0 0 1258.863,1824.374 L1258.863,1787.374 L1248.863,1777.374 L937.863,1777.374 A7,7 0 0 0 930.863,1784.374" style="stroke:#B7791F;stroke-width:0.5;" fill="#FFFBEB"/><path d="M1248.863,1777.374 L1248.863,1783.874 A3.5,3.5 0 0 0 1252.363,1787.374 L1258.863,1787.374 L1248.863,1777.374" style="stroke:#B7791F;stroke-width:0.5;" fill="#FFFBEB"/><text x="936.863" y="1794.567" fill="#1F2937" font-size="13" textLength="277.456" font-family="Arial">Nunca actualizar el checksum histórico in-place.</text><text x="936.863" y="1809.516" fill="#1F2937" font-size="13" textLength="307.1" font-family="Arial">La D1 anterior permanece como evidencia y rollback;</text><text x="936.863" y="1824.465" fill="#1F2937" font-size="13" textLength="288.323" font-family="Arial">sólo la nueva puede recibir el manifest semántico.</text><?plantuml-src dLTBSXit4Dtp51rl8vgIdMoiKgfeIdPS_YcYf5GgJgb034X1n01Z0CEOMkKGkK0Ea9MEe9la97aDS8OVKOmh2nL7C-ZFwy_hnZVQIbCNYgxYjIhLqwekJIVgQ1GDbQoLbLgGgvGNKSy4_VF7d-ILAYiZRXq5LTx_PQEMZWfbI3eV5PxebGYAdZqzw7I4ZCxJau-ie73-2OcmqEPyfn8UiheIDjAJKw_6Ha-k8_IBekkicQVJLVD-_VZ0kBeO6-5LEYNRVzUFzQkAVdP-gh9fKLMTGaGnOWVJn-ENpOUhOhGkEwoCZXITCsIS52OT3FnoHSUfc9VAnW15TAr3lB_pMefFzbTvhUGqr2N7uyrnE4HqR51-9lnlIH4VTdpMN5KB7Up1TissLZDMEXFo_c-H5QnAhKUo4Lm1tXnUFtcfl5GPromzTZeJx-gAa0mS55BVtrda0n-37XdLeJPvrFrXcHfwGThEe5zuxVPe9EIqhWBDIOM8j4D3wQA3z582uikSGVxroNdF82J2uxIiVN0i7vJqAhgmAPhJ1R7XoRkJmJdrwFIi__fz7m_gIuKoN1U0HElt2neB4m5ViO69m2zoexoZiev0xAmA6pZN78L3yF7uWDemBvA3_DB5nPjZAW13suHtBLhBV46DG1r9A2hrn2-ijXftcXT-0h4Sc83YAg2cS3jb2eMgLIpM-gmiZPoB8NfHFU9dJWhrhXNYTOtap3Z_xTUDeBRQ-X94eOwYhzNXIaXfPDpd6fqjDbrjSxaj9DoY-_lFdoDL-Fdkwr2o43_9ENrBOMxb4L8Us7lOsdGymwEZXGJtQSaL94eDd8xBQAPTHzcYqv5UH-vOkkHQjuA2jgXnVbrxmTb0V2PVcmnsaukcT6YHiNUtoZuC3IGgxqQSku_3yrKBMx1yl_ySYCzKzFDkVnoLtwMFaxjRdL6ISJMnH5rNpcxXWJQ3W8QtdcxSAFHS7KVk2mck1pJp4Uq_9YP5nNOy_OvkzANmKw10PAA2Pu_QIdrEOssH3ssvqXvwbjWQXqEYCxJD_Pt1hCBdb2pfHZw1p-TM15hsNXbnisTxzEhj7dskjPnUfHDxdr079GpsG9X6e7e6W_DJmelWs2zKV26usP3hfPdrA3FZft57mv_U0NWfh1w3E6dstKu6qRbCFTLSYCu8SFZjJeaSCaZWRw9Yew5mZqIjsmNnw_6ycyztmsVpmB-ja5Bkh2um2p3wE6hetpQaIUb_izPOtt3LztzvV_BXV7Xrt3_lNmqkpZzUdfnT3Nuy6RmTNhp_AkhQmLeS-q4T7Lmwocwfud39PUZlIQqM9Pmf8C_7H7AByTZ0ULXzctsVzBHLkBI2Ido4-hS3GZ0RLdPLs06FDodcm6qm7xSKIZTDQrpA6DeuCp98gj2OpNcGFsAnr916EoBz4IF3JdU5X0amyrx3qtbg55vPX2aJY6h9QSr9i3GAiKYBIy2iu6eYHRh0RkhOkle_BDmQMF5dAuVc6A5zqhZ0RZpIHXUYe0_TWwt-3h7wQQdefRQ5jfFD46QjENfUXTeisd8BAuzSRGlXvvSPE3tRS31lSfddIquvNPoz2xkAR6MD0usfg7tUYvQR-AvrAc_zgrsG6iKY2vJC0yFUOh-c9jzOSFEuJp5atVh6aQ1KCs2CNbDxU9mT43lGAm7i6elR7kg_00xFjmxg8OwBZWBXXdeqDlLD-f9KFML92POFaCMqdfDfhY2B5QCXQpocThUvtmL40OGOnmOQ8DbRtRwfAQAqtoS3F8mMItw-4I01674eIq9kWXDJTcoebnlPNF3YYpgwlrjTAT9oYO1uPmplrI1nFU6QXBc9GZK34UGSxcb62ty80Oke8hxZElM5vLrLeFanntXvOMjgExJjLv8Dg1-IVeIe5aRVmZvV_1fgR_4o1tGn4QLYdEz4SWA6SJ_m777qhf8yW57lsA-AVC-Sjp0FURIaf6AkfHXGXLcg5Z5ALjj1j9pHAxZ-1G00?></g></svg>