<svg xmlns="http://www.w3.org/2000/svg" xmlns:xlink="http://www.w3.org/1999/xlink" version="1.1" data-diagram-type="SEQUENCE" style="width:1019px;height:1045px;background:#FCFCFD;" width="1019px" height="1045px" viewBox="0 0 1019 1045" zoomAndPan="magnify" preserveAspectRatio="none" contentStyleType="text/css"><?plantuml 1.2026.7?><defs/><g font-family="sans-serif" lengthAdjust="spacing"><rect x="0" y="0" width="1019" height="1045" fill="#FCFCFD" style="stroke:none;"/><g class="title" data-source-line="2"><text x="332.436" y="28.132" fill="#1F2937" font-size="14" textLength="352.42" font-weight="700" font-family="Arial">App — Activación y seguridad de una cuenta satélite</text></g><rect x="23.072" y="582.428" width="939.755" height="302.436" fill="#F8FAFC" style="stroke:#F8FAFC;stroke-width:1;" rx="7" ry="7"/><rect x="23.072" y="582.428" width="939.755" height="302.436" fill="none" style="stroke:#829AB1;stroke-width:1.5;" rx="7" ry="7"/><g><title>Persona</title><rect x="35.572" y="123.197" width="8" height="835.564" fill="#000" fill-opacity="0"/><line x1="39.072" y1="123.197" x2="39.072" y2="958.762" style="stroke:#9FB3C8;stroke-width:0.5;stroke-dasharray:5,5;"/></g><g><title>App Web</title><rect x="186.741" y="123.197" width="8" height="835.564" fill="#000" fill-opacity="0"/><line x1="190.241" y1="123.197" x2="190.241" y2="958.762" style="stroke:#9FB3C8;stroke-width:0.5;stroke-dasharray:5,5;"/></g><g><title>App Worker</title><rect x="472.322" y="123.197" width="8" height="835.564" fill="#000" fill-opacity="0"/><line x1="475.822" y1="123.197" x2="475.822" y2="958.762" style="stroke:#9FB3C8;stroke-width:0.5;stroke-dasharray:5,5;"/></g><g><title>App D1</title><rect x="765.507" y="123.197" width="8" height="835.564" fill="#000" fill-opacity="0"/><line x1="769.007" y1="123.197" x2="769.007" y2="958.762" style="stroke:#9FB3C8;stroke-width:0.5;stroke-dasharray:5,5;"/></g><g><title>RPC Fuji</title><rect x="836.858" y="123.197" width="8" height="835.564" fill="#000" fill-opacity="0"/><line x1="840.358" y1="123.197" x2="840.358" y2="958.762" style="stroke:#9FB3C8;stroke-width:0.5;stroke-dasharray:5,5;"/></g><g><title>Factory . Account</title><rect x="943.327" y="123.197" width="8" height="835.564" fill="#000" fill-opacity="0"/><line x1="946.827" y1="123.197" x2="946.827" y2="958.762" style="stroke:#9FB3C8;stroke-width:0.5;stroke-dasharray:5,5;"/></g><text x="10" y="120.23" fill="#243B53" font-size="14" textLength="52.145" font-family="Arial">Persona</text><ellipse cx="39.072" cy="55.599" rx="8" ry="8" fill="#E2E2F0" style="stroke:#334E68;stroke-width:0.5;"/><path d="M39.072,63.599 L39.072,90.599 M26.072,71.599 L52.072,71.599 M39.072,90.599 L26.072,105.599 M39.072,90.599 L52.072,105.599" style="stroke:#334E68;stroke-width:0.5;" fill="none"/><rect x="154.448" y="92.099" width="71.586" height="30.099" fill="#DBEAFE" style="stroke:#627D98;stroke-width:0.5;" rx="7" ry="7"/><text x="161.448" y="112.23" fill="#1F2937" font-size="14" textLength="57.586" font-family="Arial">App Web</text><rect x="431.867" y="92.099" width="87.91" height="30.099" fill="#FEF3C7" style="stroke:#627D98;stroke-width:0.5;" rx="7" ry="7"/><text x="438.867" y="112.23" fill="#1F2937" font-size="14" textLength="73.91" font-family="Arial">App Worker</text><text x="742.659" y="120.23" fill="#1F2937" font-size="14" textLength="46.696" font-family="Arial">App D1</text><path d="M751.007,71.099 C751.007,61.099 769.007,61.099 769.007,61.099 C769.007,61.099 787.007,61.099 787.007,71.099 L787.007,97.099 C787.007,107.099 769.007,107.099 769.007,107.099 C769.007,107.099 751.007,107.099 751.007,97.099 L751.007,71.099" style="stroke:#627D98;stroke-width:0.5;" fill="#FEF3C7"/><path d="M751.007,71.099 C751.007,81.099 769.007,81.099 769.007,81.099 C769.007,81.099 787.007,81.099 787.007,71.099" style="stroke:#627D98;stroke-width:0.5;" fill="none"/><rect x="805.355" y="92.099" width="70.007" height="30.099" fill="#EDE9FE" style="stroke:#627D98;stroke-width:0.5;" rx="7" ry="7"/><text x="812.355" y="112.23" fill="#1F2937" font-size="14" textLength="56.007" font-family="Arial">RPC Fuji</text><rect x="885.362" y="76" width="122.931" height="46.197" fill="#EDE9FE" style="stroke:#627D98;stroke-width:0.5;" rx="7" ry="7"/><text x="892.362" y="96.132" fill="#1F2937" font-size="14" textLength="108.931" font-family="Arial">Factory / Account</text><text x="900.914" y="112.23" fill="#1F2937" font-size="14" textLength="91.827" font-family="Arial">Avalanche Fuji</text><text x="10" y="971.894" fill="#243B53" font-size="14" textLength="52.145" font-family="Arial">Persona</text><ellipse cx="39.072" cy="983.36" rx="8" ry="8" fill="#E2E2F0" style="stroke:#334E68;stroke-width:0.5;"/><path d="M39.072,991.36 L39.072,1018.36 M26.072,999.36 L52.072,999.36 M39.072,1018.36 L26.072,1033.36 M39.072,1018.36 L52.072,1033.36" style="stroke:#334E68;stroke-width:0.5;" fill="none"/><rect x="154.448" y="958.762" width="71.586" height="30.099" fill="#DBEAFE" style="stroke:#627D98;stroke-width:0.5;" rx="7" ry="7"/><text x="161.448" y="978.894" fill="#1F2937" font-size="14" textLength="57.586" font-family="Arial">App Web</text><rect x="431.867" y="958.762" width="87.91" height="30.099" fill="#FEF3C7" style="stroke:#627D98;stroke-width:0.5;" rx="7" ry="7"/><text x="438.867" y="978.894" fill="#1F2937" font-size="14" textLength="73.91" font-family="Arial">App Worker</text><text x="742.659" y="971.894" fill="#1F2937" font-size="14" textLength="46.696" font-family="Arial">App D1</text><path d="M751.007,984.86 C751.007,974.86 769.007,974.86 769.007,974.86 C769.007,974.86 787.007,974.86 787.007,984.86 L787.007,1010.86 C787.007,1020.86 769.007,1020.86 769.007,1020.86 C769.007,1020.86 751.007,1020.86 751.007,1010.86 L751.007,984.86" style="stroke:#627D98;stroke-width:0.5;" fill="#FEF3C7"/><path d="M751.007,984.86 C751.007,994.86 769.007,994.86 769.007,994.86 C769.007,994.86 787.007,994.86 787.007,984.86" style="stroke:#627D98;stroke-width:0.5;" fill="none"/><rect x="805.355" y="958.762" width="70.007" height="30.099" fill="#EDE9FE" style="stroke:#627D98;stroke-width:0.5;" rx="7" ry="7"/><text x="812.355" y="978.894" fill="#1F2937" font-size="14" textLength="56.007" font-family="Arial">RPC Fuji</text><rect x="885.362" y="958.762" width="122.931" height="46.197" fill="#EDE9FE" style="stroke:#627D98;stroke-width:0.5;" rx="7" ry="7"/><text x="892.362" y="978.894" fill="#1F2937" font-size="14" textLength="108.931" font-family="Arial">Factory / Account</text><text x="900.914" y="994.992" fill="#1F2937" font-size="14" textLength="91.827" font-family="Arial">Avalanche Fuji</text><polygon points="178.241,148.146,188.241,152.146,178.241,156.146,182.241,152.146" fill="#52606D" style="stroke:#52606D;stroke-width:1;stroke-linejoin:miter;stroke-miterlimit:10;"/><line x1="39.072" y1="152.146" x2="184.241" y2="152.146" style="stroke:#52606D;stroke-width:1;"/><text x="46.072" y="147.391" fill="#1F2937" font-size="13" textLength="127.169" font-family="Arial">activar Avalanche Fuji</text><polygon points="463.822,177.095,473.822,181.095,463.822,185.095,467.822,181.095" fill="#52606D" style="stroke:#52606D;stroke-width:1;stroke-linejoin:miter;stroke-miterlimit:10;"/><line x1="190.241" y1="181.095" x2="469.822" y2="181.095" style="stroke:#52606D;stroke-width:1;"/><text x="197.241" y="176.34" fill="#1F2937" font-size="13" textLength="261.581" font-family="Arial">POST /account/chains/avalanche-fuji/activate</text><line x1="475.822" y1="210.043" x2="517.822" y2="210.043" style="stroke:#52606D;stroke-width:1;"/><line x1="517.822" y1="210.043" x2="517.822" y2="223.043" style="stroke:#52606D;stroke-width:1;"/><line x1="476.822" y1="223.043" x2="517.822" y2="223.043" style="stroke:#52606D;stroke-width:1;"/><polygon points="486.822,219.043,476.822,223.043,486.822,227.043,482.822,223.043" fill="#52606D" style="stroke:#52606D;stroke-width:1;stroke-linejoin:miter;stroke-miterlimit:10;"/><text x="482.822" y="205.289" fill="#1F2937" font-size="13" textLength="195.108" font-family="Arial">valida enabled + wallet rail + RPC</text><polygon points="828.358,247.992,838.358,251.992,828.358,255.992,832.358,251.992" fill="#52606D" style="stroke:#52606D;stroke-width:1;stroke-linejoin:miter;stroke-miterlimit:10;"/><line x1="475.822" y1="251.992" x2="834.358" y2="251.992" style="stroke:#52606D;stroke-width:1;"/><text x="482.822" y="247.237" fill="#1F2937" font-size="13" textLength="236.266" font-family="Arial">eth_getCode(factory, verifier, paymaster)</text><polygon points="486.822,276.941,476.822,280.941,486.822,284.941,482.822,280.941" fill="#52606D" style="stroke:#52606D;stroke-width:1;stroke-linejoin:miter;stroke-miterlimit:10;"/><line x1="480.822" y1="280.941" x2="839.358" y2="280.941" style="stroke:#52606D;stroke-width:1;stroke-dasharray:2,2;"/><text x="492.822" y="276.186" fill="#1F2937" font-size="13" textLength="106.964" font-family="Arial">bytecode presente</text><polygon points="934.827,305.89,944.827,309.89,934.827,313.89,938.827,309.89" fill="#52606D" style="stroke:#52606D;stroke-width:1;stroke-linejoin:miter;stroke-miterlimit:10;"/><line x1="475.822" y1="309.89" x2="940.827" y2="309.89" style="stroke:#52606D;stroke-width:1;"/><text x="482.822" y="305.135" fill="#1F2937" font-size="13" textLength="188.589" font-family="Arial">predictAccount(signers actuales)</text><polygon points="757.007,334.838,767.007,338.838,757.007,342.838,761.007,338.838" fill="#52606D" style="stroke:#52606D;stroke-width:1;stroke-linejoin:miter;stroke-miterlimit:10;"/><line x1="475.822" y1="338.838" x2="763.007" y2="338.838" style="stroke:#52606D;stroke-width:1;"/><text x="482.822" y="334.083" fill="#1F2937" font-size="13" textLength="269.185" font-family="Arial">operation prepared + captured security version</text><polygon points="201.241,363.787,191.241,367.787,201.241,371.787,197.241,367.787" fill="#52606D" style="stroke:#52606D;stroke-width:1;stroke-linejoin:miter;stroke-miterlimit:10;"/><line x1="195.241" y1="367.787" x2="474.822" y2="367.787" style="stroke:#52606D;stroke-width:1;stroke-dasharray:2,2;"/><text x="207.241" y="363.032" fill="#1F2937" font-size="13" textLength="179.569" font-family="Arial">UserOperation + challenge Fuji</text><polygon points="178.241,392.736,188.241,396.736,178.241,400.736,182.241,396.736" fill="#52606D" style="stroke:#52606D;stroke-width:1;stroke-linejoin:miter;stroke-miterlimit:10;"/><line x1="39.072" y1="396.736" x2="184.241" y2="396.736" style="stroke:#52606D;stroke-width:1;"/><text x="46.072" y="391.981" fill="#1F2937" font-size="13" textLength="122.123" font-family="Arial">autoriza con passkey</text><polygon points="463.822,421.685,473.822,425.685,463.822,429.685,467.822,425.685" fill="#52606D" style="stroke:#52606D;stroke-width:1;stroke-linejoin:miter;stroke-miterlimit:10;"/><line x1="190.241" y1="425.685" x2="469.822" y2="425.685" style="stroke:#52606D;stroke-width:1;"/><text x="197.241" y="420.93" fill="#1F2937" font-size="13" textLength="85.249" font-family="Arial">submit firmado</text><polygon points="934.827,450.633,944.827,454.633,934.827,458.633,938.827,454.633" fill="#52606D" style="stroke:#52606D;stroke-width:1;stroke-linejoin:miter;stroke-miterlimit:10;"/><line x1="475.822" y1="454.633" x2="940.827" y2="454.633" style="stroke:#52606D;stroke-width:1;"/><text x="482.822" y="449.878" fill="#1F2937" font-size="13" textLength="156.819" font-family="Arial">createAccount / handleOps</text><polygon points="486.822,479.582,476.822,483.582,486.822,487.582,482.822,483.582" fill="#52606D" style="stroke:#52606D;stroke-width:1;stroke-linejoin:miter;stroke-miterlimit:10;"/><line x1="480.822" y1="483.582" x2="945.827" y2="483.582" style="stroke:#52606D;stroke-width:1;stroke-dasharray:2,2;"/><text x="492.822" y="478.827" fill="#1F2937" font-size="13" textLength="39.019" font-family="Arial">receipt</text><polygon points="757.007,508.531,767.007,512.531,757.007,516.531,761.007,512.531" fill="#52606D" style="stroke:#52606D;stroke-width:1;stroke-linejoin:miter;stroke-miterlimit:10;"/><line x1="475.822" y1="512.531" x2="763.007" y2="512.531" style="stroke:#52606D;stroke-width:1;"/><text x="482.822" y="507.776" fill="#1F2937" font-size="13" textLength="191.864" font-family="Arial">account active + version aplicada</text><polygon points="757.007,537.479,767.007,541.479,757.007,545.479,761.007,541.479" fill="#52606D" style="stroke:#52606D;stroke-width:1;stroke-linejoin:miter;stroke-miterlimit:10;"/><line x1="475.822" y1="541.479" x2="763.007" y2="541.479" style="stroke:#52606D;stroke-width:1;"/><text x="482.822" y="536.725" fill="#1F2937" font-size="13" textLength="242.785" font-family="Arial">corrige carrera con desired_version actual</text><polygon points="201.241,566.428,191.241,570.428,201.241,574.428,197.241,570.428" fill="#52606D" style="stroke:#52606D;stroke-width:1;stroke-linejoin:miter;stroke-miterlimit:10;"/><line x1="195.241" y1="570.428" x2="474.822" y2="570.428" style="stroke:#52606D;stroke-width:1;stroke-dasharray:2,2;"/><text x="207.241" y="565.673" fill="#1F2937" font-size="13" textLength="184.996" font-family="Arial">cuenta Fuji activa o needs_sync</text><path d="M30.072,582.428 L83.243,582.428 L83.243,589.377 L73.243,599.377 L23.072,599.377 L23.072,589.428 A7,7 0 0 1 30.072,582.428" style="stroke:#829AB1;stroke-width:1.5;" fill="#F8FAFC"/><rect x="23.072" y="582.428" width="939.755" height="302.436" fill="none" style="stroke:#829AB1;stroke-width:1.5;" rx="7" ry="7"/><text x="38.072" y="595.622" fill="#1F2937" font-size="13" textLength="15.171" font-weight="700" font-family="Arial">alt</text><text x="98.243" y="594.746" fill="#1F2937" font-size="11" textLength="162.014" font-weight="700" font-family="Arial">[cambia una passkey después]</text><polygon points="178.241,626.326,188.241,630.326,178.241,634.326,182.241,630.326" fill="#52606D" style="stroke:#52606D;stroke-width:1;stroke-linejoin:miter;stroke-miterlimit:10;"/><line x1="39.072" y1="630.326" x2="184.241" y2="630.326" style="stroke:#52606D;stroke-width:1;"/><text x="46.072" y="625.571" fill="#1F2937" font-size="13" textLength="114.899" font-family="Arial">agrega o retira llave</text><polygon points="463.822,655.274,473.822,659.274,463.822,663.274,467.822,659.274" fill="#52606D" style="stroke:#52606D;stroke-width:1;stroke-linejoin:miter;stroke-miterlimit:10;"/><line x1="190.241" y1="659.274" x2="469.822" y2="659.274" style="stroke:#52606D;stroke-width:1;"/><text x="197.241" y="654.52" fill="#1F2937" font-size="13" textLength="172.739" font-family="Arial">operación de seguridad hogar</text><polygon points="757.007,699.172,767.007,703.172,757.007,707.172,761.007,703.172" fill="#52606D" style="stroke:#52606D;stroke-width:1;stroke-linejoin:miter;stroke-miterlimit:10;"/><line x1="475.822" y1="703.172" x2="763.007" y2="703.172" style="stroke:#52606D;stroke-width:1;"/><text x="482.822" y="683.468" fill="#1F2937" font-size="13" textLength="106.958" font-family="Arial">desired_version++</text><text x="482.822" y="698.417" fill="#1F2937" font-size="13" textLength="105.143" font-family="Arial">Fuji = needs_sync</text><polygon points="201.241,728.121,191.241,732.121,201.241,736.121,197.241,732.121" fill="#52606D" style="stroke:#52606D;stroke-width:1;stroke-linejoin:miter;stroke-miterlimit:10;"/><line x1="195.241" y1="732.121" x2="474.822" y2="732.121" style="stroke:#52606D;stroke-width:1;stroke-dasharray:2,2;"/><text x="207.241" y="727.366" fill="#1F2937" font-size="13" textLength="133.701" font-family="Arial">envíos Fuji bloqueados</text><polygon points="178.241,757.069,188.241,761.069,178.241,765.069,182.241,761.069" fill="#52606D" style="stroke:#52606D;stroke-width:1;stroke-linejoin:miter;stroke-miterlimit:10;"/><line x1="39.072" y1="761.069" x2="184.241" y2="761.069" style="stroke:#52606D;stroke-width:1;"/><text x="46.072" y="756.314" fill="#1F2937" font-size="13" textLength="87.414" font-family="Arial">sincronizar Fuji</text><polygon points="463.822,786.018,473.822,790.018,463.822,794.018,467.822,790.018" fill="#52606D" style="stroke:#52606D;stroke-width:1;stroke-linejoin:miter;stroke-miterlimit:10;"/><line x1="190.241" y1="790.018" x2="469.822" y2="790.018" style="stroke:#52606D;stroke-width:1;"/><text x="197.241" y="785.263" fill="#1F2937" font-size="13" textLength="131.498" font-family="Arial">UserOperation firmada</text><polygon points="934.827,814.967,944.827,818.967,934.827,822.967,938.827,818.967" fill="#52606D" style="stroke:#52606D;stroke-width:1;stroke-linejoin:miter;stroke-miterlimit:10;"/><line x1="475.822" y1="818.967" x2="940.827" y2="818.967" style="stroke:#52606D;stroke-width:1;"/><text x="482.822" y="814.212" fill="#1F2937" font-size="13" textLength="120.669" font-family="Arial">reemplaza signer set</text><polygon points="486.822,843.916,476.822,847.916,486.822,851.916,482.822,847.916" fill="#52606D" style="stroke:#52606D;stroke-width:1;stroke-linejoin:miter;stroke-miterlimit:10;"/><line x1="480.822" y1="847.916" x2="945.827" y2="847.916" style="stroke:#52606D;stroke-width:1;stroke-dasharray:2,2;"/><text x="492.822" y="843.161" fill="#1F2937" font-size="13" textLength="94.669" font-family="Arial">receipt canónico</text><polygon points="757.007,872.864,767.007,876.864,757.007,880.864,761.007,876.864" fill="#52606D" style="stroke:#52606D;stroke-width:1;stroke-linejoin:miter;stroke-miterlimit:10;"/><line x1="475.822" y1="876.864" x2="763.007" y2="876.864" style="stroke:#52606D;stroke-width:1;"/><text x="482.822" y="872.109" fill="#1F2937" font-size="13" textLength="264.481" font-family="Arial">current sólo si versión esperada sigue vigente</text><path d="M428.112,910.864 L428.112,935.864 A7,7 0 0 0 435.112,942.864 L987.112,942.864 A7,7 0 0 0 994.112,935.864 L994.112,913.864 L984.112,903.864 L435.112,903.864 A7,7 0 0 0 428.112,910.864" style="stroke:#B7791F;stroke-width:0.5;" fill="#FFFBEB"/><path d="M984.112,903.864 L984.112,910.364 A3.5,3.5 0 0 0 987.612,913.864 L994.112,913.864 L984.112,903.864" style="stroke:#B7791F;stroke-width:0.5;" fill="#FFFBEB"/><text x="546.4" y="921.058" fill="#1F2937" font-size="13" textLength="291.922" font-family="Arial">Ninguna selección explícita de Fuji cae a Arbitrum.</text><text x="546.4" y="936.007" fill="#1F2937" font-size="13" textLength="320.849" font-family="Arial">Recovery requiere prueba en todas las cuentas activas.</text><?plantuml-src TLHBJXj14DtFAIgiG0OijfOIoG6pGXWvH2GIabNJNOmxjBk7_fXCLZb4Bi625KVmJNAILFSCnX-owz6ygdxlrQl-e8pGKH9CmupcT5p7kIw22ffWMDVmz_SV68gW5YZKyiL00vwgw9H42LmK3OA8P0A2nx1yqYfGKQ08ri7U5Jbl3Uu1UgZpkQZH1ILKZIR0Nkf_GsN-Ztm-7L-C9zERqUTtODRTayl8ntpim9FHyEnx8J5WYPvQxDb9nicJ3Sn6oydLAPp77oe3NIqwvEZRzMXoERpO19zdEGtqsGXXemctPhX0ZKRCwAsBcA4ostsALZOSVSe21u3PIWUR3Ohqap6Tj05SZRzSGn_Rw_gvjU_ZQytH7TVqsrPiTrUrNiz8dX2GmLAJX1uyejOKmA7I_CNorwgI_W5Gc4qh2gTMqlvTg_WG5kJKdI9t23KsS_I1t46Hy4VhjvLD8C5rK3lod8LrIgqjW_HBAX4w1_UzgWnRa_o8gCaVh9Nmu0PWsJaCYhtZIXv7LY6m3Z4TFGdEO6WIGS-WLVNAwA-Ut7ZLevTui0EcwWpVcKjamUeNXpdTYDxVKxCp5H_BkGfmfzmSfNr7f7340-aqSbvcQAIcSUsB5h7XcYD1gWxRmhkXjqaXPjv9PA9Q2PIuNI2iSufr2NIEzMO5ahnYdwQhscpphalTwYPBkcY21KCa_TGtHl0cwy2DvwN2lEgTCwb_7PTFlW3OSR9oLAKsZe9YEbhZWXYtRMOUSFkcS7BU7fMPhT0nValbbg9UxzParX_NwRvLhUYGMIoVhMybbje-HEBPlKVSyqFehE4Gk3OZkvmtGzNc03UulYR14SrhZHoeDkaiC33m_p5WbmrxeOJTrSvPTpmdyCiNRRbX6uda78-1sSXyIoHOS0xI-f6HHM5i8B0CxTeTvikv-wKoLHgc9qsYdG3zhFNoMIZEWcmtXFaG80nTgOABysEkc_2ISxk6AJz4VXJIlaSgqpC3mKf-0tLw1tEaV1SdVvp8GE9I_0C0?></g></svg>